<svg width="8" height="15" viewBox="0 0 8 15" fill="none" xmlns="http://www.w3.org/2000/svg">
<path d="M0.916656 14.2C0.74999 14.0125 0.666656 13.7905 0.666656 13.534C0.666656 13.2775 0.74999 13.0558 0.916656 12.8688L5.79999 7.375L0.89999 1.8625C0.744434 1.6875 0.666656 1.46875 0.666656 1.20625C0.666656 0.94375 0.74999 0.71875 0.916656 0.53125C1.08332 0.34375 1.28066 0.25 1.50866 0.25C1.73666 0.25 1.93377 0.34375 2.09999 0.53125L7.69999 6.85C7.76666 6.925 7.81399 7.00625 7.84199 7.09375C7.86999 7.18125 7.88377 7.275 7.88332 7.375C7.88332 7.475 7.86932 7.56875 7.84132 7.65625C7.81332 7.74375 7.76621 7.825 7.69999 7.9L2.08332 14.2188C1.92777 14.3938 1.73599 14.4813 1.50799 14.4813C1.27999 14.4813 1.08288 14.3875 0.916656 14.2Z" fill="#4C4C4C"/>
</svg>
