<svg width="64" height="64" viewBox="0 0 64 64" fill="none" xmlns="http://www.w3.org/2000/svg">
<path d="M60 28H36V4C36 2.93913 35.5786 1.92172 34.8284 1.17157C34.0783 0.421428 33.0609 0 32 0C30.9391 0 29.9217 0.421428 29.1716 1.17157C28.4214 1.92172 28 2.93913 28 4V28H4C2.93913 28 1.92172 28.4214 1.17157 29.1716C0.421428 29.9217 0 30.9391 0 32C0 33.0609 0.421428 34.0783 1.17157 34.8284C1.92172 35.5786 2.93913 36 4 36H28V60C28 61.0609 28.4214 62.0783 29.1716 62.8284C29.9217 63.5786 30.9391 64 32 64C33.0609 64 34.0783 63.5786 34.8284 62.8284C35.5786 62.0783 36 61.0609 36 60V36H60C61.0609 36 62.0783 35.5786 62.8284 34.8284C63.5786 34.0783 64 33.0609 64 32C64 30.9391 63.5786 29.9217 62.8284 29.1716C62.0783 28.4214 61.0609 28 60 28Z" fill="url(#paint0_linear_331_824)"/>
<defs>
<linearGradient id="paint0_linear_331_824" x1="2.28571" y1="22" x2="61.0804" y2="31.6484" gradientUnits="userSpaceOnUse">
<stop stop-color="#B4CD93"/>
<stop offset="1" stop-color="#427A5B"/>
</linearGradient>
</defs>
</svg>
