<svg width="32" height="32" viewBox="0 0 32 32" fill="none" xmlns="http://www.w3.org/2000/svg">
<path d="M8.66659 26.6666C6.64436 26.6666 4.91636 25.9666 3.48259 24.5666C2.04881 23.1666 1.33236 21.4554 1.33325 19.4332C1.33325 17.6999 1.85547 16.1554 2.89992 14.7999C3.94436 13.4443 5.31103 12.5777 6.99992 12.1999C7.3777 10.5999 8.32214 9.07766 9.83325 7.63322C11.3444 6.18877 12.9555 5.46655 14.6666 5.46655C15.3999 5.46655 16.0279 5.72789 16.5506 6.25055C17.0733 6.77322 17.3341 7.40077 17.3333 8.13322V16.1999L19.4666 14.1332L21.3333 15.9999L15.9999 21.3332L10.6666 15.9999L12.5333 14.1332L14.6666 16.1999V8.13322C12.9777 8.44433 11.6666 9.26122 10.7333 10.5839C9.79992 11.9066 9.33325 13.2674 9.33325 14.6666H8.66659C7.3777 14.6666 6.2777 15.1221 5.36659 16.0332C4.45548 16.9443 3.99992 18.0443 3.99992 19.3332C3.99992 20.6221 4.45548 21.7221 5.36659 22.6332C6.2777 23.5443 7.3777 23.9999 8.66659 23.9999H24.6666C25.5999 23.9999 26.3888 23.6777 27.0333 23.0332C27.6777 22.3888 27.9999 21.5999 27.9999 20.6666C27.9999 19.7332 27.6777 18.9443 27.0333 18.2999C26.3888 17.6554 25.5999 17.3332 24.6666 17.3332H22.6666V14.6666C22.6666 13.5999 22.4221 12.6052 21.9333 11.6826C21.4444 10.7599 20.7999 9.97678 19.9999 9.33322V6.23322C21.6444 7.011 22.9444 8.16122 23.8999 9.68389C24.8555 11.2066 25.3333 12.8674 25.3333 14.6666C26.8666 14.8443 28.139 15.5057 29.1506 16.6506C30.1621 17.7954 30.6675 19.1341 30.6666 20.6666C30.6666 22.3332 30.083 23.7501 28.9159 24.9172C27.7488 26.0843 26.3324 26.6674 24.6666 26.6666H8.66659Z" fill="url(#paint0_linear_131_4315)"/>
<defs>
<linearGradient id="paint0_linear_131_4315" x1="2.38087" y1="12.7541" x2="28.6974" y2="18.7295" gradientUnits="userSpaceOnUse">
<stop stop-color="#B4CD93"/>
<stop offset="1" stop-color="#427A5B"/>
</linearGradient>
</defs>
</svg>
