<svg width="15" height="19" viewBox="0 0 15 19" fill="none" xmlns="http://www.w3.org/2000/svg">
<path d="M14.6944 7.52583C14.6878 7.4378 14.6749 7.35106 14.6561 7.26708V7.18083C14.6254 7.0823 14.5844 6.99172 14.5347 6.9125V6.9125L10.7014 1.1625C10.6485 1.08796 10.5882 1.02649 10.5225 0.980417H10.465C10.4001 0.924585 10.3284 0.888747 10.2541 0.875H5.11108C4.60275 0.875 4.11523 1.1779 3.75579 1.71707C3.39634 2.25624 3.19441 2.9875 3.19441 3.75V4.70833H2.55552C2.04719 4.70833 1.55968 5.01123 1.20023 5.5504C0.840789 6.08957 0.638855 6.82084 0.638855 7.58333V15.25C0.638855 16.0125 0.840789 16.7438 1.20023 17.2829C1.55968 17.8221 2.04719 18.125 2.55552 18.125H10.2222C10.7305 18.125 11.218 17.8221 11.5775 17.2829C11.9369 16.7438 12.1389 16.0125 12.1389 15.25V14.2917H12.7777C13.2861 14.2917 13.7736 13.9888 14.133 13.4496C14.4925 12.9104 14.6944 12.1792 14.6944 11.4167V7.58333C14.6944 7.58333 14.6944 7.58333 14.6944 7.52583ZM10.8611 4.14292L12.5158 6.625H11.5C11.3305 6.625 11.168 6.52403 11.0482 6.34431C10.9284 6.16459 10.8611 5.92083 10.8611 5.66667V4.14292ZM10.8611 15.25C10.8611 15.5042 10.7938 15.7479 10.674 15.9276C10.5541 16.1074 10.3916 16.2083 10.2222 16.2083H2.55552C2.38608 16.2083 2.22357 16.1074 2.10376 15.9276C1.98394 15.7479 1.91663 15.5042 1.91663 15.25V7.58333C1.91663 7.32917 1.98394 7.08541 2.10376 6.90569C2.22357 6.72597 2.38608 6.625 2.55552 6.625H3.19441V11.4167C3.19441 12.1792 3.39634 12.9104 3.75579 13.4496C4.11523 13.9888 4.60275 14.2917 5.11108 14.2917H10.8611V15.25ZM13.4166 11.4167C13.4166 11.6708 13.3493 11.9146 13.2295 12.0943C13.1097 12.274 12.9472 12.375 12.7777 12.375H5.11108C4.94163 12.375 4.77913 12.274 4.65931 12.0943C4.5395 11.9146 4.47219 11.6708 4.47219 11.4167V3.75C4.47219 3.49583 4.5395 3.25208 4.65931 3.07236C4.77913 2.89263 4.94163 2.79167 5.11108 2.79167H9.5833V5.66667C9.5833 6.42916 9.78523 7.16043 10.1447 7.6996C10.5041 8.23877 10.9916 8.54167 11.5 8.54167H13.4166V11.4167Z" fill="#565656"/>
</svg>
