<svg width="16" height="16" viewBox="0 0 16 16" fill="none" xmlns="http://www.w3.org/2000/svg">
<path d="M9.54667 12.7133C9.54667 13.12 9.27998 13.6533 8.93998 13.86L8 14.4666C7.12667 15.0066 5.91333 14.4 5.91333 13.32V9.7533C5.91333 9.27996 5.64667 8.6733 5.37333 8.33997L2.81331 5.64663C2.47331 5.30663 2.20667 4.70663 2.20667 4.29997V2.7533C2.20667 1.94663 2.81334 1.33997 3.55334 1.33997H12.4467C13.1867 1.33997 13.7933 1.94663 13.7933 2.68663V4.16663C13.7933 4.70663 13.4533 5.37996 13.12 5.7133" stroke="#978F8F" stroke-miterlimit="10" stroke-linecap="round" stroke-linejoin="round"/>
<path d="M10.7134 11.0134C11.8916 11.0134 12.8467 10.0583 12.8467 8.88005C12.8467 7.70184 11.8916 6.7467 10.7134 6.7467C9.53515 6.7467 8.58002 7.70184 8.58002 8.88005C8.58002 10.0583 9.53515 11.0134 10.7134 11.0134Z" stroke="#978F8F" stroke-linecap="round" stroke-linejoin="round"/>
<path d="M13.2467 11.4134L12.58 10.7467" stroke="#978F8F" stroke-linecap="round" stroke-linejoin="round"/>
</svg>
