<svg width="120" height="32" viewBox="0 0 120 32" fill="none" xmlns="http://www.w3.org/2000/svg">
<path d="M7.49998 11.9998C8.97274 11.9998 10.1666 10.8059 10.1666 9.33317C10.1666 7.86041 8.97274 6.6665 7.49998 6.6665C6.02722 6.6665 4.83331 7.86041 4.83331 9.33317C4.83331 10.8059 6.02722 11.9998 7.49998 11.9998Z" stroke="#B4CD93" stroke-width="1.5" stroke-miterlimit="10" stroke-linecap="round" stroke-linejoin="round"/>
<path d="M31.5 11.9998C32.9727 11.9998 34.1666 10.8059 34.1666 9.33317C34.1666 7.86041 32.9727 6.6665 31.5 6.6665C30.0272 6.6665 28.8333 7.86041 28.8333 9.33317C28.8333 10.8059 30.0272 11.9998 31.5 11.9998Z" stroke="#B4CD93" stroke-width="1.5" stroke-miterlimit="10" stroke-linecap="round" stroke-linejoin="round"/>
<path d="M28.8333 9.33325H23.5" stroke="#B4CD93" stroke-width="1.5" stroke-miterlimit="10" stroke-linecap="round" stroke-linejoin="round"/>
<path d="M15.5 9.33325H10.1666" stroke="#B4CD93" stroke-width="1.5" stroke-miterlimit="10" stroke-linecap="round" stroke-linejoin="round"/>
<path d="M13.5 22V24.6667C13.5 25.48 13.0066 26.1866 12.3133 26.48C12.06 26.6 11.7933 26.6667 11.5 26.6667H8.83331C7.72665 26.6667 6.83331 25.7733 6.83331 24.6667V22C6.83331 20.8933 7.72665 20 8.83331 20H11.5C12.6066 20 13.5 20.8933 13.5 22Z" stroke="#B4CD93" stroke-width="1.5" stroke-miterlimit="10" stroke-linecap="round" stroke-linejoin="round"/>
<path d="M32.1667 22V24.6667C32.1667 25.7733 31.2733 26.6667 30.1667 26.6667H27.5C27.2067 26.6667 26.94 26.6 26.6867 26.48C25.9933 26.1866 25.5 25.48 25.5 24.6667V22C25.5 20.8933 26.3933 20 27.5 20H30.1667C31.2733 20 32.1667 20.8933 32.1667 22Z" stroke="#B4CD93" stroke-width="1.5" stroke-miterlimit="10" stroke-linecap="round" stroke-linejoin="round"/>
<path d="M23.5 7.33325V11.3333C23.5 12.4266 22.5933 13.3333 21.5 13.3333H17.5C16.4067 13.3333 15.5 12.4266 15.5 11.3333V7.33325C15.5 6.23992 16.4067 5.33325 17.5 5.33325H21.5C22.5933 5.33325 23.5 6.23992 23.5 7.33325Z" stroke="#B4CD93" stroke-width="1.5" stroke-miterlimit="10" stroke-linecap="round" stroke-linejoin="round"/>
<path d="M23.5 10.3066C26.66 11.9066 28.8333 15.3467 28.8333 19.3333C28.8333 19.56 28.82 19.7733 28.7933 20" stroke="#B4CD93" stroke-width="1.5" stroke-miterlimit="10" stroke-linecap="round" stroke-linejoin="round"/>
<path d="M10.2066 20C10.18 19.7733 10.1666 19.56 10.1666 19.3333C10.1666 15.3467 12.34 11.9066 15.5 10.3066" stroke="#B4CD93" stroke-width="1.5" stroke-miterlimit="10" stroke-linecap="round" stroke-linejoin="round"/>
<path d="M45.18 25V7.72H51.972C53.068 7.72 53.988 7.944 54.732 8.392C55.476 8.84 56.036 9.42 56.412 10.132C56.788 10.836 56.976 11.58 56.976 12.364C56.976 13.316 56.74 14.132 56.268 14.812C55.804 15.492 55.176 15.956 54.384 16.204L54.36 15.616C55.464 15.888 56.312 16.42 56.904 17.212C57.496 17.996 57.792 18.912 57.792 19.96C57.792 20.976 57.588 21.86 57.18 22.612C56.78 23.364 56.192 23.952 55.416 24.376C54.648 24.792 53.716 25 52.62 25H45.18ZM47.724 22.612H52.236C52.804 22.612 53.312 22.504 53.76 22.288C54.216 22.072 54.572 21.764 54.828 21.364C55.092 20.956 55.224 20.472 55.224 19.912C55.224 19.392 55.108 18.924 54.876 18.508C54.652 18.084 54.324 17.752 53.892 17.512C53.468 17.264 52.968 17.14 52.392 17.14H47.724V22.612ZM47.724 14.776H51.936C52.4 14.776 52.816 14.684 53.184 14.5C53.56 14.308 53.856 14.036 54.072 13.684C54.296 13.324 54.408 12.892 54.408 12.388C54.408 11.716 54.184 11.164 53.736 10.732C53.288 10.3 52.688 10.084 51.936 10.084H47.724V14.776ZM65.928 25.36C64.64 25.36 63.508 25.08 62.532 24.52C61.564 23.952 60.808 23.164 60.264 22.156C59.728 21.14 59.46 19.964 59.46 18.628C59.46 17.212 59.724 15.984 60.252 14.944C60.788 13.904 61.532 13.1 62.484 12.532C63.436 11.964 64.544 11.68 65.808 11.68C67.128 11.68 68.252 11.988 69.18 12.604C70.108 13.212 70.8 14.08 71.256 15.208C71.72 16.336 71.904 17.676 71.808 19.228H69.3V18.316C69.284 16.812 68.996 15.7 68.436 14.98C67.884 14.26 67.04 13.9 65.904 13.9C64.648 13.9 63.704 14.296 63.072 15.088C62.44 15.88 62.124 17.024 62.124 18.52C62.124 19.944 62.44 21.048 63.072 21.832C63.704 22.608 64.616 22.996 65.808 22.996C66.592 22.996 67.268 22.82 67.836 22.468C68.412 22.108 68.86 21.596 69.18 20.932L71.64 21.712C71.136 22.872 70.372 23.772 69.348 24.412C68.324 25.044 67.184 25.36 65.928 25.36ZM61.308 19.228V17.272H70.56V19.228H61.308ZM73.3003 25V24.604L80.6563 14.284H73.9723V12.04H84.6403V12.448L77.2963 22.756H84.2803V25H73.3003ZM87.5138 9.916V7.48H90.0218V9.916H87.5138ZM87.5138 25V12.04H90.0218V25H87.5138ZM99.3733 25.36C98.0853 25.36 96.9533 25.08 95.9773 24.52C95.0093 23.952 94.2533 23.164 93.7093 22.156C93.1733 21.14 92.9053 19.964 92.9053 18.628C92.9053 17.212 93.1693 15.984 93.6973 14.944C94.2333 13.904 94.9773 13.1 95.9293 12.532C96.8813 11.964 97.9893 11.68 99.2533 11.68C100.573 11.68 101.697 11.988 102.625 12.604C103.553 13.212 104.245 14.08 104.701 15.208C105.165 16.336 105.349 17.676 105.253 19.228H102.745V18.316C102.729 16.812 102.441 15.7 101.881 14.98C101.329 14.26 100.485 13.9 99.3493 13.9C98.0933 13.9 97.1493 14.296 96.5173 15.088C95.8853 15.88 95.5693 17.024 95.5693 18.52C95.5693 19.944 95.8853 21.048 96.5173 21.832C97.1493 22.608 98.0613 22.996 99.2533 22.996C100.037 22.996 100.713 22.82 101.281 22.468C101.857 22.108 102.305 21.596 102.625 20.932L105.085 21.712C104.581 22.872 103.817 23.772 102.793 24.412C101.769 25.044 100.629 25.36 99.3733 25.36ZM94.7533 19.228V17.272H104.005V19.228H94.7533ZM107.946 25V12.04H110.178V15.184L109.866 14.776C110.026 14.36 110.234 13.98 110.49 13.636C110.746 13.284 111.042 12.996 111.378 12.772C111.706 12.532 112.07 12.348 112.47 12.22C112.878 12.084 113.294 12.004 113.718 11.98C114.142 11.948 114.55 11.968 114.942 12.04V14.392C114.518 14.28 114.046 14.248 113.526 14.296C113.014 14.344 112.542 14.508 112.11 14.788C111.702 15.052 111.378 15.372 111.138 15.748C110.906 16.124 110.738 16.544 110.634 17.008C110.53 17.464 110.478 17.948 110.478 18.46V25H107.946Z" fill="url(#paint0_linear_131_2267)"/>
<defs>
<linearGradient id="paint0_linear_131_2267" x1="46.1071" y1="11" x2="106.511" y2="33.6126" gradientUnits="userSpaceOnUse">
<stop stop-color="#B4CD93"/>
<stop offset="1" stop-color="#427A5B"/>
</linearGradient>
</defs>
</svg>
