<svg width="40" height="40" viewBox="0 0 40 40" fill="none" xmlns="http://www.w3.org/2000/svg">
<path d="M38.6692 9.16349C37.8707 8.32699 36.7681 7.83269 35.5133 7.83269H29.2015V7.75664C29.2015 6.80607 28.8213 5.89353 28.1749 5.28516C27.5285 4.63877 26.654 4.25854 25.7034 4.25854H14.2966C13.308 4.25854 12.4335 4.63877 11.7871 5.28516C11.1407 5.93155 10.7605 6.80607 10.7605 7.75664V7.83269H4.48669C3.23194 7.83269 2.12928 8.32699 1.3308 9.16349C0.532319 9.96197 0 11.1027 0 12.3194V31.2547C0 32.5095 0.494296 33.6122 1.3308 34.4106C2.12928 35.2091 3.26996 35.7414 4.48669 35.7414H35.5133C36.7681 35.7414 37.8707 35.2471 38.6692 34.4106C39.4677 33.6122 40 32.4715 40 31.2547V12.3194C40 11.0646 39.5057 9.96197 38.6692 9.16349ZM38.0228 31.2547H37.9848C37.9848 31.9391 37.7186 32.5475 37.2624 33.0038C36.8061 33.4601 36.1977 33.7262 35.5133 33.7262H4.48669C3.80228 33.7262 3.19392 33.4601 2.73764 33.0038C2.28137 32.5475 2.01521 31.9391 2.01521 31.2547V12.3194C2.01521 11.635 2.28137 11.0266 2.73764 10.5703C3.19392 10.1141 3.80228 9.8479 4.48669 9.8479H11.8251C12.3954 9.8479 12.8517 9.39162 12.8517 8.82128V7.71862C12.8517 7.30037 13.0038 6.92014 13.27 6.65398C13.5361 6.38782 13.9163 6.23573 14.3346 6.23573H25.7034C26.1217 6.23573 26.5019 6.38782 26.7681 6.65398C27.0342 6.92014 27.1863 7.30037 27.1863 7.71862V8.82128C27.1863 9.39162 27.6426 9.8479 28.2129 9.8479H35.5513C36.2357 9.8479 36.8441 10.1141 37.3004 10.5703C37.7566 11.0266 38.0228 11.635 38.0228 12.3194V31.2547Z" fill="url(#paint0_linear_131_4328)"/>
<path d="M20 12.4333C17.4144 12.4333 15.057 13.498 13.384 15.171C11.673 16.882 10.6464 19.2014 10.6464 21.787C10.6464 24.3725 11.711 26.7299 13.384 28.4029C15.095 30.114 17.4144 31.1406 20 31.1406C22.5855 31.1406 24.9429 30.0759 26.6159 28.4029C28.327 26.6919 29.3536 24.3725 29.3536 21.787C29.3536 19.2014 28.2889 16.844 26.6159 15.171C24.9429 13.498 22.5855 12.4333 20 12.4333ZM25.1711 26.9961C23.8403 28.2889 22.0152 29.1254 20 29.1254C17.9848 29.1254 16.1597 28.2889 14.8289 26.9961C13.4981 25.6653 12.6996 23.8402 12.6996 21.825C12.6996 19.8098 13.5361 17.9847 14.8289 16.6539C16.1597 15.3231 17.9848 14.5246 20 14.5246C22.0152 14.5246 23.8403 15.3611 25.1711 16.6539C26.5019 17.9847 27.3004 19.8098 27.3004 21.825C27.3384 23.8402 26.5019 25.6653 25.1711 26.9961Z" fill="url(#paint1_linear_131_4328)"/>
<path d="M33.5361 16.1217C34.5651 16.1217 35.3992 15.2876 35.3992 14.2586C35.3992 13.2297 34.5651 12.3955 33.5361 12.3955C32.5071 12.3955 31.673 13.2297 31.673 14.2586C31.673 15.2876 32.5071 16.1217 33.5361 16.1217Z" fill="url(#paint2_linear_131_4328)"/>
<defs>
<linearGradient id="paint0_linear_131_4328" x1="1.42857" y1="15.0808" x2="37.5927" y2="22.6209" gradientUnits="userSpaceOnUse">
<stop stop-color="#B4CD93"/>
<stop offset="1" stop-color="#427A5B"/>
</linearGradient>
<linearGradient id="paint1_linear_131_4328" x1="11.3145" y1="18.864" x2="28.5002" y2="21.6842" gradientUnits="userSpaceOnUse">
<stop stop-color="#B4CD93"/>
<stop offset="1" stop-color="#427A5B"/>
</linearGradient>
<linearGradient id="paint2_linear_131_4328" x1="31.8061" y1="13.6764" x2="35.2292" y2="14.2382" gradientUnits="userSpaceOnUse">
<stop stop-color="#B4CD93"/>
<stop offset="1" stop-color="#427A5B"/>
</linearGradient>
</defs>
</svg>
