<svg width="12" height="13" viewBox="0 0 12 13" fill="none" xmlns="http://www.w3.org/2000/svg">
<path d="M10.2132 0.657599L5.97057 4.90024L1.72793 0.657599C1.54039 0.470063 1.28604 0.364706 1.02082 0.364706C0.755605 0.364706 0.501251 0.470062 0.313715 0.657599C0.126178 0.845135 0.0208215 1.09949 0.0208216 1.36471C0.0208216 1.62992 0.126178 1.88428 0.313715 2.07181L4.55636 6.31445L0.313715 10.5571C0.126178 10.7446 0.0208216 10.999 0.0208216 11.2642C0.0208215 11.5294 0.126178 11.7838 0.313715 11.9713C0.501251 12.1588 0.755605 12.2642 1.02082 12.2642C1.28604 12.2642 1.54039 12.1588 1.72793 11.9713L5.97057 7.72867L10.2132 11.9713C10.4007 12.1588 10.6551 12.2642 10.9203 12.2642C11.1855 12.2642 11.4399 12.1588 11.6274 11.9713C11.815 11.7838 11.9203 11.5294 11.9203 11.2642C11.9203 10.999 11.815 10.7446 11.6274 10.5571L7.38478 6.31445L11.6274 2.07181C11.815 1.88428 11.9203 1.62992 11.9203 1.36471C11.9203 1.09949 11.815 0.845136 11.6274 0.657599C11.4399 0.470063 11.1855 0.364705 10.9203 0.364705C10.6551 0.364705 10.4007 0.470062 10.2132 0.657599Z" fill="#D40101"/>
</svg>
