<svg width="150" height="152" viewBox="0 0 150 152" fill="none" xmlns="http://www.w3.org/2000/svg">
<path d="M46.8504 54.4987H41.6824L40.7304 57.1337H39.0984L43.3824 45.3527H45.1674L49.4344 57.1337H47.8024L46.8504 54.4987ZM46.4084 53.2407L44.2664 47.2567L42.1244 53.2407H46.4084ZM52.8484 44.5537V57.1337H51.3014V44.5537H52.8484ZM57.032 44.5537V57.1337H55.485V44.5537H57.032ZM71.4938 45.2847V46.5427H68.2638V57.1337H66.7168V46.5427H63.4698V45.2847H71.4938ZM72.8201 52.4417C72.8201 51.4897 73.0128 50.6567 73.3981 49.9427C73.7834 49.2173 74.3104 48.6563 74.9791 48.2597C75.6591 47.863 76.4128 47.6647 77.2401 47.6647C78.0561 47.6647 78.7644 47.8403 79.3651 48.1917C79.9658 48.543 80.4134 48.985 80.7081 49.5177V47.8177H82.2721V57.1337H80.7081V55.3997C80.4021 55.9437 79.9431 56.397 79.3311 56.7597C78.7304 57.111 78.0278 57.2867 77.2231 57.2867C76.3958 57.2867 75.6478 57.0827 74.9791 56.6747C74.3104 56.2667 73.7834 55.6943 73.3981 54.9577C73.0128 54.221 72.8201 53.3823 72.8201 52.4417ZM80.7081 52.4587C80.7081 51.756 80.5664 51.144 80.2831 50.6227C79.9998 50.1013 79.6144 49.7047 79.1271 49.4327C78.6511 49.1493 78.1241 49.0077 77.5461 49.0077C76.9681 49.0077 76.4411 49.1437 75.9651 49.4157C75.4891 49.6877 75.1094 50.0843 74.8261 50.6057C74.5428 51.127 74.4011 51.739 74.4011 52.4417C74.4011 53.1557 74.5428 53.779 74.8261 54.3117C75.1094 54.833 75.4891 55.2353 75.9651 55.5187C76.4411 55.7907 76.9681 55.9267 77.5461 55.9267C78.1241 55.9267 78.6511 55.7907 79.1271 55.5187C79.6144 55.2353 79.9998 54.833 80.2831 54.3117C80.5664 53.779 80.7081 53.1613 80.7081 52.4587ZM88.1844 57.2867C87.4704 57.2867 86.8301 57.1677 86.2634 56.9297C85.6967 56.6803 85.2491 56.3403 84.9204 55.9097C84.5917 55.4677 84.4104 54.9633 84.3764 54.3967H85.9744C86.0197 54.8613 86.2351 55.241 86.6204 55.5357C87.0171 55.8303 87.5327 55.9777 88.1674 55.9777C88.7567 55.9777 89.2214 55.8473 89.5614 55.5867C89.9014 55.326 90.0714 54.9973 90.0714 54.6007C90.0714 54.1927 89.8901 53.8923 89.5274 53.6997C89.1647 53.4957 88.6037 53.2973 87.8444 53.1047C87.1531 52.9233 86.5864 52.742 86.1444 52.5607C85.7137 52.368 85.3397 52.0903 85.0224 51.7277C84.7164 51.3537 84.5634 50.8663 84.5634 50.2657C84.5634 49.7897 84.7051 49.3533 84.9884 48.9567C85.2717 48.56 85.6741 48.2483 86.1954 48.0217C86.7167 47.7837 87.3117 47.6647 87.9804 47.6647C89.0117 47.6647 89.8447 47.9253 90.4794 48.4467C91.1141 48.968 91.4541 49.682 91.4994 50.5887H89.9524C89.9184 50.1013 89.7201 49.7103 89.3574 49.4157C89.0061 49.121 88.5301 48.9737 87.9294 48.9737C87.3741 48.9737 86.9321 49.0927 86.6034 49.3307C86.2747 49.5687 86.1104 49.8803 86.1104 50.2657C86.1104 50.5717 86.2067 50.8267 86.3994 51.0307C86.6034 51.2233 86.8527 51.382 87.1474 51.5067C87.4534 51.62 87.8727 51.7503 88.4054 51.8977C89.0741 52.079 89.6181 52.2603 90.0374 52.4417C90.4567 52.6117 90.8137 52.8723 91.1084 53.2237C91.4144 53.575 91.5731 54.034 91.5844 54.6007C91.5844 55.1107 91.4427 55.5697 91.1594 55.9777C90.8761 56.3857 90.4737 56.7087 89.9524 56.9467C89.4424 57.1733 88.8531 57.2867 88.1844 57.2867ZM98.9702 57.1337L95.3152 53.0197V57.1337H93.7682V44.5537H95.3152V51.9487L98.9022 47.8177H101.061L96.6752 52.4587L101.078 57.1337H98.9702ZM105.815 57.2867C105.101 57.2867 104.461 57.1677 103.894 56.9297C103.328 56.6803 102.88 56.3403 102.551 55.9097C102.223 55.4677 102.041 54.9633 102.007 54.3967H103.605C103.651 54.8613 103.866 55.241 104.251 55.5357C104.648 55.8303 105.164 55.9777 105.798 55.9777C106.388 55.9777 106.852 55.8473 107.192 55.5867C107.532 55.326 107.702 54.9973 107.702 54.6007C107.702 54.1927 107.521 53.8923 107.158 53.6997C106.796 53.4957 106.235 53.2973 105.475 53.1047C104.784 52.9233 104.217 52.742 103.775 52.5607C103.345 52.368 102.971 52.0903 102.653 51.7277C102.347 51.3537 102.194 50.8663 102.194 50.2657C102.194 49.7897 102.336 49.3533 102.619 48.9567C102.903 48.56 103.305 48.2483 103.826 48.0217C104.348 47.7837 104.943 47.6647 105.611 47.6647C106.643 47.6647 107.476 47.9253 108.11 48.4467C108.745 48.968 109.085 49.682 109.13 50.5887H107.583C107.549 50.1013 107.351 49.7103 106.988 49.4157C106.637 49.121 106.161 48.9737 105.56 48.9737C105.005 48.9737 104.563 49.0927 104.234 49.3307C103.906 49.5687 103.741 49.8803 103.741 50.2657C103.741 50.5717 103.838 50.8267 104.03 51.0307C104.234 51.2233 104.484 51.382 104.778 51.5067C105.084 51.62 105.504 51.7503 106.036 51.8977C106.705 52.079 107.249 52.2603 107.668 52.4417C108.088 52.6117 108.445 52.8723 108.739 53.2237C109.045 53.575 109.204 54.034 109.215 54.6007C109.215 55.1107 109.074 55.5697 108.79 55.9777C108.507 56.3857 108.105 56.7087 107.583 56.9467C107.073 57.1733 106.484 57.2867 105.815 57.2867Z" fill="#565656"/>
<path opacity="0.7" d="M150 75.2507C150 65.3686 148.06 55.5833 144.291 46.4535C140.522 37.3236 134.997 29.0281 128.033 22.0404C121.069 15.0527 112.801 9.50981 103.701 5.72811C94.6018 1.94641 84.8491 -3.16195e-06 75 -3.27835e-06C65.1509 -3.39476e-06 55.3982 1.94641 46.2987 5.72811C37.1993 9.50981 28.9314 15.0527 21.967 22.0404C15.0026 29.0281 9.47813 37.3236 5.70903 46.4535C1.93992 55.5833 -2.85735e-06 65.3686 -3.28931e-06 75.2507L22.5 75.2507C22.5 68.3332 23.8579 61.4835 26.4963 55.0926C29.1347 48.7018 33.0018 42.8949 37.8769 38.0035C42.752 33.1121 48.5395 29.2321 54.9091 26.5849C61.2787 23.9377 68.1056 22.5752 75 22.5752C81.8944 22.5752 88.7213 23.9377 95.0909 26.5849C101.46 29.2321 107.248 33.1121 112.123 38.0035C116.998 42.8949 120.865 48.7018 123.504 55.0926C126.142 61.4835 127.5 68.3332 127.5 75.2507L150 75.2507Z" fill="#B8B8B8"/>
<path d="M150 75.2507C150 65.3686 148.06 55.5833 144.291 46.4535C140.522 37.3236 134.997 29.0281 128.033 22.0404C121.069 15.0527 112.801 9.50981 103.701 5.72811C94.6018 1.94641 84.8491 -3.16195e-06 75 -3.27835e-06C65.1509 -3.39476e-06 55.3982 1.94641 46.2987 5.72811C37.1993 9.50981 28.9314 15.0527 21.967 22.0404C15.0026 29.0281 9.47813 37.3236 5.70903 46.4535C1.93992 55.5833 -2.85735e-06 65.3686 -3.28931e-06 75.2507L15 75.2507C15 67.345 16.5519 59.5168 19.5672 52.2129C22.5825 44.9091 27.0021 38.2726 32.5736 32.6825C38.1451 27.0923 44.7595 22.658 52.039 19.6326C59.3185 16.6073 67.1207 15.0501 75 15.0501C82.8793 15.0501 90.6815 16.6073 97.961 19.6326C105.241 22.658 111.855 27.0923 117.426 32.6825C122.998 38.2726 127.417 44.9091 130.433 52.2129C133.448 59.5168 135 67.345 135 75.2507L150 75.2507Z" fill="url(#paint0_linear_131_2309)"/>
<path d="M64.984 108.919C64.984 121.962 54.4456 132.536 41.446 132.536C28.4463 132.536 17.908 121.962 17.908 108.919C17.908 95.8758 28.4463 85.3022 41.446 85.3022C54.4456 85.3022 64.984 95.8758 64.984 108.919ZM20.2618 108.919C20.2618 120.658 29.7462 130.174 41.446 130.174C53.1457 130.174 62.6302 120.658 62.6302 108.919C62.6302 97.1801 53.1457 87.6639 41.446 87.6639C29.7462 87.6639 20.2618 97.1801 20.2618 108.919Z" fill="#CACACA"/>
<path d="M41.446 86.4831C41.446 85.8309 41.9751 85.2991 42.6264 85.3319C47.9338 85.5992 53.0084 87.6624 57.0119 91.2038C61.3114 95.0069 64.08 100.253 64.7984 105.959C65.5167 111.664 64.1355 117.437 60.9138 122.193C57.9141 126.622 53.5108 129.887 48.4369 131.47C47.8138 131.664 47.1683 131.28 47.0065 130.648C46.845 130.017 47.2264 129.378 47.847 129.18C52.3675 127.743 56.2888 124.82 58.967 120.866C61.8665 116.585 63.1097 111.39 62.4631 106.255C61.8166 101.12 59.3248 96.3981 55.4553 92.9753C51.8818 89.8143 47.3601 87.9618 42.6263 87.6969C41.9752 87.6605 41.446 87.1352 41.446 86.4831Z" fill="url(#paint1_linear_131_2309)"/>
<path d="M33.3498 108.457C32.7518 108.146 32.4528 107.664 32.4528 107.012C32.4528 106.689 32.5335 106.396 32.695 106.133C32.8624 105.864 33.1106 105.652 33.4395 105.496C33.7744 105.335 34.181 105.254 34.6594 105.254C35.1378 105.254 35.5415 105.335 35.8704 105.496C36.2052 105.652 36.4534 105.864 36.6149 106.133C36.7823 106.396 36.866 106.689 36.866 107.012C36.866 107.341 36.7853 107.631 36.6238 107.882C36.4624 108.128 36.2471 108.319 35.978 108.457C36.3069 108.6 36.564 108.809 36.7494 109.084C36.9348 109.359 37.0275 109.685 37.0275 110.062C37.0275 110.469 36.9228 110.825 36.7135 111.13C36.5102 111.429 36.2292 111.659 35.8704 111.82C35.5116 111.982 35.1079 112.062 34.6594 112.062C34.2109 112.062 33.8072 111.982 33.4484 111.82C33.0956 111.659 32.8146 111.429 32.6053 111.13C32.4019 110.825 32.3003 110.469 32.3003 110.062C32.3003 109.685 32.393 109.359 32.5783 109.084C32.7637 108.803 33.0209 108.594 33.3498 108.457ZM35.6461 107.192C35.6461 106.899 35.5564 106.671 35.377 106.51C35.2036 106.349 34.9644 106.268 34.6594 106.268C34.3604 106.268 34.1212 106.349 33.9418 106.51C33.7684 106.671 33.6817 106.902 33.6817 107.201C33.6817 107.47 33.7714 107.685 33.9508 107.847C34.1361 108.008 34.3724 108.089 34.6594 108.089C34.9464 108.089 35.1827 108.008 35.368 107.847C35.5534 107.679 35.6461 107.461 35.6461 107.192ZM34.6594 109.004C34.3185 109.004 34.0405 109.09 33.8252 109.264C33.6159 109.437 33.5112 109.685 33.5112 110.008C33.5112 110.307 33.6129 110.553 33.8162 110.744C34.0255 110.929 34.3066 111.022 34.6594 111.022C35.0122 111.022 35.2903 110.926 35.4936 110.735C35.6969 110.544 35.7986 110.301 35.7986 110.008C35.7986 109.691 35.6939 109.446 35.4846 109.273C35.2753 109.093 35.0003 109.004 34.6594 109.004ZM38.0194 108.564C38.0194 107.53 38.2048 106.719 38.5755 106.133C38.9523 105.547 39.5742 105.254 40.4413 105.254C41.3084 105.254 41.9273 105.547 42.2981 106.133C42.6748 106.719 42.8632 107.53 42.8632 108.564C42.8632 109.605 42.6748 110.421 42.2981 111.013C41.9273 111.605 41.3084 111.901 40.4413 111.901C39.5742 111.901 38.9523 111.605 38.5755 111.013C38.2048 110.421 38.0194 109.605 38.0194 108.564ZM41.6253 108.564C41.6253 108.122 41.5954 107.751 41.5356 107.452C41.4818 107.147 41.3682 106.899 41.1948 106.707C41.0273 106.516 40.7762 106.42 40.4413 106.42C40.1064 106.42 39.8523 106.516 39.6788 106.707C39.5114 106.899 39.3978 107.147 39.338 107.452C39.2842 107.751 39.2572 108.122 39.2572 108.564C39.2572 109.019 39.2842 109.401 39.338 109.712C39.3918 110.017 39.5054 110.265 39.6788 110.457C39.8523 110.642 40.1064 110.735 40.4413 110.735C40.7762 110.735 41.0303 110.642 41.2037 110.457C41.3772 110.265 41.4908 110.017 41.5446 109.712C41.5984 109.401 41.6253 109.019 41.6253 108.564ZM43.6749 106.985C43.6749 106.531 43.8064 106.175 44.0695 105.918C44.3386 105.661 44.6825 105.532 45.1011 105.532C45.5197 105.532 45.8606 105.661 46.1237 105.918C46.3928 106.175 46.5273 106.531 46.5273 106.985C46.5273 107.446 46.3928 107.805 46.1237 108.062C45.8606 108.319 45.5197 108.448 45.1011 108.448C44.6825 108.448 44.3386 108.319 44.0695 108.062C43.8064 107.805 43.6749 107.446 43.6749 106.985ZM49.4336 105.64L45.9084 111.919H44.6885L48.2047 105.64H49.4336ZM45.0921 106.286C44.7632 106.286 44.5988 106.519 44.5988 106.985C44.5988 107.458 44.7632 107.694 45.0921 107.694C45.2536 107.694 45.3792 107.637 45.4689 107.524C45.5586 107.404 45.6034 107.225 45.6034 106.985C45.6034 106.519 45.433 106.286 45.0921 106.286ZM47.6127 110.564C47.6127 110.104 47.7443 109.748 48.0074 109.497C48.2765 109.24 48.6203 109.111 49.0389 109.111C49.4575 109.111 49.7954 109.24 50.0526 109.497C50.3157 109.748 50.4472 110.104 50.4472 110.564C50.4472 111.025 50.3157 111.384 50.0526 111.641C49.7954 111.898 49.4575 112.027 49.0389 112.027C48.6144 112.027 48.2705 111.898 48.0074 111.641C47.7443 111.384 47.6127 111.025 47.6127 110.564ZM49.03 109.865C48.6891 109.865 48.5187 110.098 48.5187 110.564C48.5187 111.037 48.6891 111.273 49.03 111.273C49.3649 111.273 49.5323 111.037 49.5323 110.564C49.5323 110.098 49.3649 109.865 49.03 109.865Z" fill="#565656"/>
<path d="M27.2853 149.017C26.8213 149.017 26.3931 148.909 26.0008 148.694C25.6133 148.474 25.3047 148.17 25.0751 147.783C24.8502 147.39 24.7378 146.95 24.7378 146.462C24.7378 145.974 24.8502 145.536 25.0751 145.149C25.3047 144.761 25.6133 144.46 26.0008 144.245C26.3931 144.025 26.8213 143.915 27.2853 143.915C27.7542 143.915 28.1823 144.025 28.5698 144.245C28.9621 144.46 29.2707 144.761 29.4955 145.149C29.7204 145.536 29.8328 145.974 29.8328 146.462C29.8328 146.95 29.7204 147.39 29.4955 147.783C29.2707 148.17 28.9621 148.474 28.5698 148.694C28.1823 148.909 27.7542 149.017 27.2853 149.017ZM27.2853 148.306C27.6154 148.306 27.9096 148.232 28.168 148.084C28.4263 147.931 28.6272 147.716 28.7708 147.438C28.9191 147.156 28.9932 146.83 28.9932 146.462C28.9932 146.094 28.9191 145.771 28.7708 145.493C28.6272 145.216 28.4263 145.003 28.168 144.855C27.9096 144.706 27.6154 144.632 27.2853 144.632C26.9552 144.632 26.661 144.706 26.4027 144.855C26.1443 145.003 25.941 145.216 25.7927 145.493C25.6492 145.771 25.5774 146.094 25.5774 146.462C25.5774 146.83 25.6492 147.156 25.7927 147.438C25.941 147.716 26.1443 147.931 26.4027 148.084C26.661 148.232 26.9552 148.306 27.2853 148.306ZM31.4559 143.656V148.967H30.6378V143.656H31.4559ZM32.2572 146.972C32.2572 146.575 32.3386 146.223 32.5012 145.917C32.6687 145.611 32.8935 145.374 33.1758 145.206C33.4628 145.034 33.781 144.948 34.1302 144.948C34.3885 144.948 34.6421 145.005 34.8909 145.12C35.1444 145.23 35.3453 145.379 35.4936 145.565V143.656H36.3189V148.967H35.4936V148.371C35.3597 148.562 35.1731 148.72 34.9339 148.845C34.6995 148.969 34.4292 149.031 34.123 149.031C33.7786 149.031 33.4628 148.945 33.1758 148.773C32.8935 148.596 32.6687 148.352 32.5012 148.041C32.3386 147.725 32.2572 147.369 32.2572 146.972ZM35.4936 146.986C35.4936 146.713 35.4362 146.476 35.3214 146.276C35.2114 146.075 35.0655 145.922 34.8837 145.816C34.7019 145.711 34.5057 145.658 34.2952 145.658C34.0847 145.658 33.8886 145.711 33.7068 145.816C33.525 145.917 33.3767 146.067 33.2619 146.268C33.1519 146.465 33.0968 146.699 33.0968 146.972C33.0968 147.244 33.1519 147.484 33.2619 147.689C33.3767 147.895 33.525 148.053 33.7068 148.163C33.8934 148.268 34.0895 148.321 34.2952 148.321C34.5057 148.321 34.7019 148.268 34.8837 148.163C35.0655 148.058 35.2114 147.904 35.3214 147.704C35.4362 147.498 35.4936 147.259 35.4936 146.986ZM42.4795 143.979V144.647H41.1519V148.967H40.3339V144.647H38.9991V143.979H42.4795ZM43.0353 146.972C43.0353 146.575 43.1166 146.223 43.2793 145.917C43.4467 145.611 43.6716 145.374 43.9539 145.206C44.2409 145.034 44.5566 144.948 44.9011 144.948C45.2121 144.948 45.4824 145.01 45.712 145.135C45.9464 145.254 46.133 145.405 46.2717 145.587V145.013H47.097V148.967H46.2717V148.378C46.133 148.565 45.944 148.72 45.7048 148.845C45.4656 148.969 45.1929 149.031 44.8867 149.031C44.5471 149.031 44.2361 148.945 43.9539 148.773C43.6716 148.596 43.4467 148.352 43.2793 148.041C43.1166 147.725 43.0353 147.369 43.0353 146.972ZM46.2717 146.986C46.2717 146.713 46.2143 146.476 46.0995 146.276C45.9895 146.075 45.8435 145.922 45.6618 145.816C45.48 145.711 45.2838 145.658 45.0733 145.658C44.8628 145.658 44.6667 145.711 44.4849 145.816C44.3031 145.917 44.1548 146.067 44.04 146.268C43.9299 146.465 43.8749 146.699 43.8749 146.972C43.8749 147.244 43.9299 147.484 44.04 147.689C44.1548 147.895 44.3031 148.053 44.4849 148.163C44.6715 148.268 44.8676 148.321 45.0733 148.321C45.2838 148.321 45.48 148.268 45.6618 148.163C45.8435 148.058 45.9895 147.904 46.0995 147.704C46.2143 147.498 46.2717 147.259 46.2717 146.986ZM49.6067 149.031C49.2957 149.031 49.0158 148.976 48.7671 148.866C48.5231 148.751 48.3293 148.598 48.1858 148.407C48.0423 148.211 47.9657 147.993 47.9562 147.754H48.803C48.8173 147.921 48.8962 148.062 49.0398 148.177C49.1881 148.287 49.3723 148.342 49.5923 148.342C49.8219 148.342 49.999 148.299 50.1233 148.213C50.2525 148.122 50.3171 148.007 50.3171 147.869C50.3171 147.72 50.2453 147.61 50.1018 147.539C49.9631 147.467 49.7406 147.388 49.4344 147.302C49.1378 147.22 48.8962 147.141 48.7097 147.065C48.5231 146.988 48.3604 146.871 48.2217 146.713C48.0877 146.555 48.0208 146.347 48.0208 146.089C48.0208 145.878 48.083 145.687 48.2073 145.515C48.3317 145.338 48.5087 145.199 48.7384 145.099C48.9728 144.998 49.2407 144.948 49.5421 144.948C49.9918 144.948 50.353 145.063 50.6257 145.292C50.9031 145.517 51.0514 145.826 51.0706 146.218H50.2525C50.2382 146.041 50.1664 145.9 50.0372 145.795C49.9081 145.689 49.7334 145.637 49.5134 145.637C49.2981 145.637 49.133 145.678 49.0182 145.759C48.9034 145.84 48.846 145.948 48.846 146.082C48.846 146.187 48.8843 146.276 48.9608 146.347C49.0374 146.419 49.1307 146.476 49.2407 146.52C49.3507 146.558 49.5134 146.608 49.7287 146.67C50.0157 146.747 50.2501 146.826 50.4319 146.907C50.6185 146.984 50.7788 147.098 50.9127 147.251C51.0467 147.405 51.116 147.608 51.1208 147.861C51.1208 148.086 51.0586 148.287 50.9342 148.464C50.8099 148.641 50.6328 148.78 50.4032 148.88C50.1784 148.981 49.9128 149.031 49.6067 149.031ZM53.5691 146.993L55.3918 148.967H54.2867L52.8228 147.266V148.967H52.0048V143.656H52.8228V146.742L54.258 145.013H55.3918L53.5691 146.993ZM57.4134 149.031C57.1025 149.031 56.8226 148.976 56.5738 148.866C56.3298 148.751 56.1361 148.598 55.9926 148.407C55.849 148.211 55.7725 147.993 55.7629 147.754H56.6097C56.624 147.921 56.703 148.062 56.8465 148.177C56.9948 148.287 57.179 148.342 57.3991 148.342C57.6287 148.342 57.8057 148.299 57.9301 148.213C58.0593 148.122 58.1238 148.007 58.1238 147.869C58.1238 147.72 58.0521 147.61 57.9086 147.539C57.7698 147.467 57.5474 147.388 57.2412 147.302C56.9446 147.22 56.703 147.141 56.5164 147.065C56.3298 146.988 56.1672 146.871 56.0284 146.713C55.8945 146.555 55.8275 146.347 55.8275 146.089C55.8275 145.878 55.8897 145.687 56.0141 145.515C56.1385 145.338 56.3155 145.199 56.5451 145.099C56.7795 144.998 57.0474 144.948 57.3488 144.948C57.7985 144.948 58.1597 145.063 58.4324 145.292C58.7099 145.517 58.8582 145.826 58.8773 146.218H58.0593C58.0449 146.041 57.9731 145.9 57.844 145.795C57.7148 145.689 57.5402 145.637 57.3201 145.637C57.1048 145.637 56.9398 145.678 56.825 145.759C56.7102 145.84 56.6528 145.948 56.6528 146.082C56.6528 146.187 56.691 146.276 56.7676 146.347C56.8441 146.419 56.9374 146.476 57.0474 146.52C57.1575 146.558 57.3201 146.608 57.5354 146.67C57.8224 146.747 58.0569 146.826 58.2387 146.907C58.4252 146.984 58.5855 147.098 58.7195 147.251C58.8534 147.405 58.9228 147.608 58.9276 147.861C58.9276 148.086 58.8654 148.287 58.741 148.464C58.6166 148.641 58.4396 148.78 58.21 148.88C57.9851 148.981 57.7196 149.031 57.4134 149.031Z" fill="#565656"/>
<path d="M130 108.919C130 121.962 119.462 132.536 106.462 132.536C93.4624 132.536 82.9241 121.962 82.9241 108.919C82.9241 95.8758 93.4624 85.3022 106.462 85.3022C119.462 85.3022 130 95.8758 130 108.919ZM85.2779 108.919C85.2779 120.658 94.7624 130.174 106.462 130.174C118.162 130.174 127.646 120.658 127.646 108.919C127.646 97.1801 118.162 87.6639 106.462 87.6639C94.7624 87.6639 85.2779 97.1801 85.2779 108.919Z" fill="#CACACA"/>
<path d="M106.462 86.4831C106.462 85.8309 106.991 85.2991 107.642 85.332C111.884 85.5456 115.996 86.9072 119.539 89.2824C123.41 91.8774 126.427 95.5658 128.208 99.8812C129.99 104.197 130.456 108.945 129.548 113.526C128.64 118.107 126.398 122.316 123.106 125.618C119.814 128.921 115.62 131.171 111.054 132.082C106.488 132.993 101.755 132.525 97.4545 130.738C93.1535 128.95 89.4773 125.923 86.8909 122.04C84.5222 118.483 83.1649 114.353 82.9533 110.095C82.921 109.446 83.451 108.919 84.101 108.919C84.751 108.919 85.2745 109.446 85.3103 110.095C85.5197 113.886 86.738 117.559 88.8481 120.728C91.1758 124.223 94.4843 126.947 98.3552 128.556C102.226 130.165 106.486 130.586 110.595 129.766C114.704 128.945 118.479 126.921 121.442 123.948C124.404 120.976 126.422 117.189 127.239 113.066C128.057 108.942 127.637 104.669 126.034 100.785C124.43 96.9011 121.715 93.5816 118.231 91.246C115.076 89.1303 111.418 87.9082 107.642 87.6969C106.991 87.6605 106.462 87.1352 106.462 86.4831Z" fill="url(#paint2_linear_131_2309)"/>
<path d="M99.0705 110.502C99.6446 110.023 100.102 109.626 100.443 109.309C100.784 108.986 101.068 108.651 101.295 108.304C101.522 107.957 101.636 107.616 101.636 107.281C101.636 106.976 101.564 106.737 101.421 106.564C101.277 106.39 101.056 106.304 100.757 106.304C100.458 106.304 100.228 106.405 100.066 106.609C99.9047 106.806 99.821 107.078 99.815 107.425H98.5951C98.619 106.707 98.8313 106.163 99.2319 105.792C99.6386 105.422 100.153 105.236 100.775 105.236C101.457 105.236 101.98 105.419 102.345 105.783C102.709 106.142 102.892 106.618 102.892 107.21C102.892 107.676 102.766 108.122 102.515 108.546C102.264 108.971 101.977 109.342 101.654 109.658C101.331 109.969 100.909 110.346 100.389 110.789H103.035V111.829H98.604V110.896L99.0705 110.502ZM103.827 108.564C103.827 107.53 104.012 106.719 104.383 106.133C104.759 105.547 105.381 105.254 106.248 105.254C107.116 105.254 107.735 105.547 108.105 106.133C108.482 106.719 108.67 107.53 108.67 108.564C108.67 109.605 108.482 110.421 108.105 111.013C107.735 111.605 107.116 111.901 106.248 111.901C105.381 111.901 104.759 111.605 104.383 111.013C104.012 110.421 103.827 109.605 103.827 108.564ZM107.433 108.564C107.433 108.122 107.403 107.751 107.343 107.452C107.289 107.147 107.175 106.899 107.002 106.707C106.835 106.516 106.583 106.42 106.248 106.42C105.914 106.42 105.659 106.516 105.486 106.707C105.319 106.899 105.205 107.147 105.145 107.452C105.091 107.751 105.064 108.122 105.064 108.564C105.064 109.019 105.091 109.401 105.145 109.712C105.199 110.017 105.313 110.265 105.486 110.457C105.659 110.642 105.914 110.735 106.248 110.735C106.583 110.735 106.838 110.642 107.011 110.457C107.184 110.265 107.298 110.017 107.352 109.712C107.406 109.401 107.433 109.019 107.433 108.564ZM109.482 106.985C109.482 106.531 109.614 106.175 109.877 105.918C110.146 105.661 110.49 105.532 110.908 105.532C111.327 105.532 111.668 105.661 111.931 105.918C112.2 106.175 112.335 106.531 112.335 106.985C112.335 107.446 112.2 107.805 111.931 108.062C111.668 108.319 111.327 108.448 110.908 108.448C110.49 108.448 110.146 108.319 109.877 108.062C109.614 107.805 109.482 107.446 109.482 106.985ZM115.241 105.64L111.716 111.919H110.496L114.012 105.64H115.241ZM110.899 106.286C110.57 106.286 110.406 106.519 110.406 106.985C110.406 107.458 110.57 107.694 110.899 107.694C111.061 107.694 111.186 107.637 111.276 107.524C111.366 107.404 111.411 107.225 111.411 106.985C111.411 106.519 111.24 106.286 110.899 106.286ZM113.42 110.564C113.42 110.104 113.551 109.748 113.815 109.497C114.084 109.24 114.428 109.111 114.846 109.111C115.265 109.111 115.603 109.24 115.86 109.497C116.123 109.748 116.254 110.104 116.254 110.564C116.254 111.025 116.123 111.384 115.86 111.641C115.603 111.898 115.265 112.027 114.846 112.027C114.422 112.027 114.078 111.898 113.815 111.641C113.551 111.384 113.42 111.025 113.42 110.564ZM114.837 109.865C114.496 109.865 114.326 110.098 114.326 110.564C114.326 111.037 114.496 111.273 114.837 111.273C115.172 111.273 115.339 111.037 115.339 110.564C115.339 110.098 115.172 109.865 114.837 109.865Z" fill="#565656"/>
<path d="M92.0544 148.967H91.2363L88.7749 145.242V148.967H87.9569V143.972H88.7749L91.2363 147.689V143.972H92.0544V148.967ZM96.7526 146.893C96.7526 147.041 96.743 147.175 96.7239 147.295H93.7027C93.7267 147.61 93.8439 147.864 94.0544 148.055C94.2649 148.247 94.5232 148.342 94.8294 148.342C95.2695 148.342 95.5805 148.158 95.7623 147.79H96.6449C96.5253 148.153 96.3076 148.452 95.9919 148.687C95.6809 148.916 95.2934 149.031 94.8294 149.031C94.4514 149.031 94.1118 148.947 93.8104 148.78C93.5138 148.608 93.2794 148.369 93.1071 148.062C92.9397 147.751 92.856 147.393 92.856 146.986C92.856 146.579 92.9373 146.223 93.1 145.917C93.2674 145.606 93.4994 145.367 93.796 145.199C94.0974 145.032 94.4419 144.948 94.8294 144.948C95.2025 144.948 95.535 145.029 95.8269 145.192C96.1187 145.355 96.3459 145.584 96.5086 145.881C96.6712 146.173 96.7526 146.51 96.7526 146.893ZM95.8986 146.634C95.8938 146.333 95.7862 146.091 95.5757 145.91C95.3652 145.728 95.1045 145.637 94.7935 145.637C94.5112 145.637 94.2697 145.728 94.0687 145.91C93.8678 146.087 93.7482 146.328 93.7099 146.634H95.8986ZM102.868 145.013L101.641 148.967H100.78L99.9831 146.046L99.1866 148.967H98.3255L97.0912 145.013H97.9236L98.7488 148.192L99.5884 145.013H100.442L101.246 148.177L102.064 145.013H102.868ZM108.565 143.979V144.647H107.238V148.967H106.42V144.647H105.085V143.979H108.565ZM109.121 146.972C109.121 146.575 109.203 146.223 109.365 145.917C109.533 145.611 109.757 145.374 110.04 145.206C110.327 145.034 110.643 144.948 110.987 144.948C111.298 144.948 111.568 145.01 111.798 145.135C112.032 145.254 112.219 145.405 112.358 145.587V145.013H113.183V148.967H112.358V148.378C112.219 148.565 112.03 148.72 111.791 148.845C111.551 148.969 111.279 149.031 110.973 149.031C110.633 149.031 110.322 148.945 110.04 148.773C109.757 148.596 109.533 148.352 109.365 148.041C109.203 147.725 109.121 147.369 109.121 146.972ZM112.358 146.986C112.358 146.713 112.3 146.476 112.185 146.276C112.075 146.075 111.929 145.922 111.748 145.816C111.566 145.711 111.37 145.658 111.159 145.658C110.949 145.658 110.753 145.711 110.571 145.816C110.389 145.917 110.241 146.067 110.126 146.268C110.016 146.465 109.961 146.699 109.961 146.972C109.961 147.244 110.016 147.484 110.126 147.689C110.241 147.895 110.389 148.053 110.571 148.163C110.757 148.268 110.953 148.321 111.159 148.321C111.37 148.321 111.566 148.268 111.748 148.163C111.929 148.058 112.075 147.904 112.185 147.704C112.3 147.498 112.358 147.259 112.358 146.986ZM115.693 149.031C115.382 149.031 115.102 148.976 114.853 148.866C114.609 148.751 114.415 148.598 114.272 148.407C114.128 148.211 114.052 147.993 114.042 147.754H114.889C114.903 147.921 114.982 148.062 115.126 148.177C115.274 148.287 115.458 148.342 115.678 148.342C115.908 148.342 116.085 148.299 116.209 148.213C116.338 148.122 116.403 148.007 116.403 147.869C116.403 147.72 116.331 147.61 116.188 147.539C116.049 147.467 115.826 147.388 115.52 147.302C115.224 147.22 114.982 147.141 114.796 147.065C114.609 146.988 114.446 146.871 114.308 146.713C114.174 146.555 114.107 146.347 114.107 146.089C114.107 145.878 114.169 145.687 114.293 145.515C114.418 145.338 114.595 145.199 114.824 145.099C115.059 144.998 115.327 144.948 115.628 144.948C116.078 144.948 116.439 145.063 116.712 145.292C116.989 145.517 117.137 145.826 117.156 146.218H116.338C116.324 146.041 116.252 145.9 116.123 145.795C115.994 145.689 115.819 145.637 115.599 145.637C115.384 145.637 115.219 145.678 115.104 145.759C114.989 145.84 114.932 145.948 114.932 146.082C114.932 146.187 114.97 146.276 115.047 146.347C115.123 146.419 115.217 146.476 115.327 146.52C115.437 146.558 115.599 146.608 115.815 146.67C116.102 146.747 116.336 146.826 116.518 146.907C116.704 146.984 116.865 147.098 116.999 147.251C117.133 147.405 117.202 147.608 117.207 147.861C117.207 148.086 117.144 148.287 117.02 148.464C116.896 148.641 116.719 148.78 116.489 148.88C116.264 148.981 115.999 149.031 115.693 149.031ZM119.655 146.993L121.478 148.967H120.373L118.909 147.266V148.967H118.091V143.656H118.909V146.742L120.344 145.013H121.478L119.655 146.993ZM123.499 149.031C123.188 149.031 122.908 148.976 122.66 148.866C122.416 148.751 122.222 148.598 122.078 148.407C121.935 148.211 121.858 147.993 121.849 147.754H122.696C122.71 147.921 122.789 148.062 122.932 148.177C123.081 148.287 123.265 148.342 123.485 148.342C123.715 148.342 123.892 148.299 124.016 148.213C124.145 148.122 124.21 148.007 124.21 147.869C124.21 147.72 124.138 147.61 123.994 147.539C123.856 147.467 123.633 147.388 123.327 147.302C123.03 147.22 122.789 147.141 122.602 147.065C122.416 146.988 122.253 146.871 122.114 146.713C121.98 146.555 121.913 146.347 121.913 146.089C121.913 145.878 121.976 145.687 122.1 145.515C122.224 145.338 122.401 145.199 122.631 145.099C122.865 144.998 123.133 144.948 123.435 144.948C123.884 144.948 124.246 145.063 124.518 145.292C124.796 145.517 124.944 145.826 124.963 146.218H124.145C124.131 146.041 124.059 145.9 123.93 145.795C123.801 145.689 123.626 145.637 123.406 145.637C123.191 145.637 123.026 145.678 122.911 145.759C122.796 145.84 122.739 145.948 122.739 146.082C122.739 146.187 122.777 146.276 122.853 146.347C122.93 146.419 123.023 146.476 123.133 146.52C123.243 146.558 123.406 146.608 123.621 146.67C123.908 146.747 124.143 146.826 124.325 146.907C124.511 146.984 124.671 147.098 124.805 147.251C124.939 147.405 125.009 147.608 125.013 147.861C125.013 148.086 124.951 148.287 124.827 148.464C124.702 148.641 124.525 148.78 124.296 148.88C124.071 148.981 123.805 149.031 123.499 149.031Z" fill="#565656"/>
<defs>
<linearGradient id="paint0_linear_131_2309" x1="98.4375" y1="5.37504" x2="75.6767" y2="143.611" gradientUnits="userSpaceOnUse">
<stop stop-color="#B4CD93"/>
<stop offset="1" stop-color="#427A5B"/>
</linearGradient>
<linearGradient id="paint1_linear_131_2309" x1="19.5892" y1="101.539" x2="62.844" y2="108.613" gradientUnits="userSpaceOnUse">
<stop stop-color="#B4CD93"/>
<stop offset="1" stop-color="#427A5B"/>
</linearGradient>
<linearGradient id="paint2_linear_131_2309" x1="84.6054" y1="101.539" x2="127.86" y2="108.613" gradientUnits="userSpaceOnUse">
<stop stop-color="#B4CD93"/>
<stop offset="1" stop-color="#427A5B"/>
</linearGradient>
</defs>
</svg>
