<svg width="16" height="16" viewBox="0 0 16 16" fill="none" xmlns="http://www.w3.org/2000/svg">
<path d="M7.99922 4.41442C7.29019 4.41442 6.59708 4.62463 6.00755 5.01847C5.41801 5.41231 4.95852 5.97208 4.68719 6.62701C4.41586 7.28194 4.34486 8.00261 4.48319 8.69788C4.62151 9.39315 4.96294 10.0318 5.4643 10.5331C5.96566 11.0343 6.60443 11.3757 7.29984 11.514C7.99524 11.6523 8.71605 11.5813 9.37111 11.31C10.0262 11.0387 10.5861 10.5793 10.98 9.98991C11.3739 9.40049 11.5841 8.70752 11.5841 7.99863C11.5829 7.04842 11.2048 6.13748 10.5328 5.46558C9.86074 4.79367 8.94962 4.41566 7.99922 4.41442ZM7.99922 10.6478C7.47516 10.6478 6.96286 10.4925 6.52711 10.2014C6.09137 9.91026 5.75175 9.49652 5.5512 9.01244C5.35065 8.52836 5.29817 7.99569 5.40041 7.4818C5.50265 6.9679 5.75501 6.49586 6.12558 6.12536C6.49615 5.75487 6.96829 5.50255 7.48229 5.40033C7.99628 5.29811 8.52905 5.35058 9.01322 5.55109C9.4974 5.7516 9.91123 6.09116 10.2024 6.52681C10.4935 6.96247 10.6489 7.47467 10.6489 7.99863C10.6489 8.70124 10.3698 9.37508 9.87286 9.8719C9.37594 10.3687 8.70197 10.6478 7.99922 10.6478ZM14.7015 8.21992C14.7061 8.07265 14.7061 7.92461 14.7015 7.77735L15.8962 6.28444C15.9418 6.22729 15.9735 6.16023 15.9885 6.08864C16.0035 6.01705 16.0015 5.94294 15.9827 5.87226C15.7958 5.16794 15.5159 4.49164 15.1504 3.8612C15.114 3.79722 15.0632 3.7427 15.0018 3.70208C14.9405 3.66147 14.8704 3.6359 14.7973 3.62745L12.8919 3.41629C12.7916 3.30877 12.6877 3.20488 12.5801 3.10462L12.3681 1.19876C12.3597 1.12568 12.3341 1.05563 12.2935 0.994296C12.2529 0.932964 12.1983 0.882083 12.1343 0.845788C11.5046 0.481412 10.8292 0.202112 10.126 0.0151859C10.0551 -0.00332932 9.9809 -0.00493734 9.90929 0.0104916C9.83768 0.0259205 9.7707 0.0579547 9.71375 0.104012L8.21743 1.30161C8.06992 1.29693 7.92229 1.29693 7.77477 1.30161L6.2847 0.103233C6.22754 0.0575759 6.16046 0.0259659 6.08886 0.0109446C6.01725 -0.00407678 5.94312 -0.00209035 5.87243 0.0167442C5.16797 0.203631 4.49154 0.483477 3.86098 0.848905C3.79698 0.8852 3.74245 0.936081 3.70183 0.997413C3.6612 1.05875 3.63563 1.1288 3.62718 1.20187L3.4191 3.10696C3.31155 3.20773 3.20764 3.31162 3.10737 3.41863L1.20035 3.63524C1.12726 3.64369 1.05719 3.66926 0.995849 3.70988C0.934505 3.75049 0.883613 3.80501 0.847311 3.86899C0.482864 4.49867 0.203509 5.17386 0.016546 5.87693C-0.00152575 5.94692 -0.00311933 6.02015 0.0118905 6.09085C0.0269002 6.16156 0.0581045 6.22783 0.103052 6.28444L1.30088 7.78046C1.29621 7.92795 1.29621 8.07555 1.30088 8.22304L0.102272 9.71672C0.0566064 9.77387 0.0249902 9.84093 0.00996594 9.91252C-0.00505835 9.98411 -0.00307153 10.0582 0.0157667 10.1289C0.203016 10.8319 0.482909 11.5068 0.848091 12.1361C0.884393 12.2 0.935284 12.2546 0.996628 12.2952C1.05797 12.3358 1.12804 12.3614 1.20113 12.3698L3.10659 12.581C3.20738 12.6885 3.31129 12.7924 3.41832 12.8926L3.63497 14.7962C3.64342 14.8692 3.669 14.9393 3.70962 15.0006C3.75025 15.062 3.80478 15.1128 3.86877 15.1491C4.49857 15.5135 5.17389 15.7928 5.87711 15.9797C5.9478 15.9986 6.02193 16.0006 6.09353 15.9855C6.16513 15.9705 6.23221 15.9389 6.28937 15.8933L7.77789 14.6996C7.92518 14.7042 8.07326 14.7042 8.22055 14.6996L9.71764 15.8979C9.80064 15.9641 9.90371 16.0001 10.0099 16C10.0504 15.9999 10.0907 15.9946 10.1299 15.9844C10.833 15.7972 11.5081 15.5174 12.1375 15.1523C12.2015 15.116 12.256 15.0651 12.2966 15.0037C12.3372 14.9424 12.3628 14.8724 12.3713 14.7993L12.5825 12.8942C12.69 12.7939 12.7939 12.6901 12.8942 12.5825L14.8004 12.3706C14.8735 12.3621 14.9436 12.3366 15.0049 12.296C15.0663 12.2553 15.1172 12.2008 15.1535 12.1368C15.518 11.5072 15.7974 10.832 15.9842 10.1289C16.0031 10.0582 16.0051 9.98411 15.99 9.91252C15.975 9.84093 15.9434 9.77387 15.8977 9.71672L14.7015 8.21992ZM14.4599 11.4636L12.6175 11.6686C12.5024 11.6818 12.3963 11.7374 12.3198 11.8244C12.1658 11.9979 12.0016 12.162 11.8281 12.3161C11.741 12.3925 11.6855 12.4986 11.6722 12.6137L11.4672 14.4549C11.0359 14.6849 10.5827 14.8712 10.1143 15.0112L8.66711 13.8534C8.58411 13.7872 8.48104 13.7512 8.37486 13.7513H8.3468C8.11527 13.7645 7.88317 13.7645 7.65164 13.7513C7.53601 13.7442 7.42187 13.7803 7.33134 13.8526L5.8849 15.0112C5.41696 14.8705 4.96426 14.6833 4.53354 14.4526L4.32858 12.6121C4.31531 12.497 4.25976 12.391 4.17271 12.3145C3.9992 12.1605 3.83499 11.9963 3.68095 11.8228C3.60446 11.7358 3.49837 11.6803 3.38325 11.667L1.54169 11.4621C1.31191 11.0321 1.12551 10.5802 0.985253 10.1133L2.14334 8.66639C2.21562 8.57587 2.25172 8.46175 2.24465 8.34615C2.2314 8.11466 2.2314 7.88261 2.24465 7.65112C2.25172 7.53551 2.21562 7.42139 2.14334 7.33088L0.985253 5.88473C1.12604 5.41688 1.31323 4.96427 1.54403 4.53363L3.38481 4.32871C3.49993 4.31544 3.60602 4.25991 3.68251 4.17287C3.83655 3.99939 4.00075 3.83521 4.17427 3.68121C4.26132 3.60474 4.31686 3.49866 4.33014 3.38357L4.5351 1.54237C4.96519 1.31263 5.4171 1.12627 5.88412 0.98604L7.33134 2.1439C7.42187 2.21617 7.53601 2.25226 7.65164 2.24519C7.88317 2.23194 8.11527 2.23194 8.3468 2.24519C8.46243 2.25226 8.57658 2.21617 8.66711 2.1439L10.1135 0.98604C10.5815 1.1268 11.0342 1.31395 11.4649 1.54471L11.6699 3.38668C11.6831 3.50178 11.7387 3.60785 11.8257 3.68433C11.9992 3.83833 12.1635 4.00251 12.3175 4.17599C12.394 4.26302 12.5001 4.31856 12.6152 4.33183L14.4567 4.53675C14.6864 4.96626 14.8728 5.41755 15.0132 5.88395L13.8551 7.33088C13.7828 7.42139 13.7467 7.53551 13.7538 7.65112C13.767 7.88261 13.767 8.11466 13.7538 8.34615C13.7467 8.46175 13.7828 8.57587 13.8551 8.66639L15.0132 10.1125C14.8729 10.5803 14.6862 11.0329 14.456 11.4636H14.4599Z" fill="#7F7F7F"/>
</svg>
