<svg width="32" height="24" viewBox="0 0 32 24" fill="none" xmlns="http://www.w3.org/2000/svg">
<path d="M11.0998 23.1498C10.8331 23.1498 10.5831 23.1078 10.3498 23.0238C10.1164 22.9398 9.89976 22.7985 9.69976 22.5998L1.09976 13.9998C0.733091 13.6331 0.557757 13.1578 0.573757 12.5738C0.589757 11.9898 0.781757 11.5151 1.14976 11.1498C1.51642 10.7831 1.98309 10.5998 2.54976 10.5998C3.11642 10.5998 3.58309 10.7831 3.94976 11.1498L11.0998 18.2998L28.0498 1.3498C28.4164 0.983138 28.8918 0.799805 29.4758 0.799805C30.0598 0.799805 30.5344 0.983138 30.8998 1.3498C31.2664 1.71647 31.4498 2.1918 31.4498 2.7758C31.4498 3.3598 31.2664 3.83447 30.8998 4.19981L12.4998 22.5998C12.2998 22.7998 12.0831 22.9418 11.8498 23.0258C11.6164 23.1098 11.3664 23.1511 11.0998 23.1498Z" fill="url(#paint0_linear_131_4611)"/>
<defs>
<linearGradient id="paint0_linear_131_4611" x1="1.6755" y1="8.48263" x2="29.3811" y2="14.7638" gradientUnits="userSpaceOnUse">
<stop stop-color="#B4CD93"/>
<stop offset="1" stop-color="#427A5B"/>
</linearGradient>
</defs>
</svg>
