<svg width="12" height="12" viewBox="0 0 12 12" fill="none" xmlns="http://www.w3.org/2000/svg">
<path d="M11.5 4.62667C11.4948 4.56542 11.4847 4.50509 11.47 4.44667V4.38667C11.446 4.31812 11.4139 4.25511 11.375 4.2V4.2L8.375 0.2C8.33367 0.148144 8.28641 0.105387 8.235 0.0733333H8.19C8.13921 0.0344942 8.08311 0.0095628 8.025 0H4C3.60218 0 3.22064 0.210714 2.93934 0.585787C2.65804 0.960859 2.5 1.46957 2.5 2V2.66667H2C1.60218 2.66667 1.22064 2.87738 0.93934 3.25245C0.658035 3.62753 0.5 4.13623 0.5 4.66667V10C0.5 10.5304 0.658035 11.0391 0.93934 11.4142C1.22064 11.7893 1.60218 12 2 12H8C8.39782 12 8.77936 11.7893 9.06066 11.4142C9.34196 11.0391 9.5 10.5304 9.5 10V9.33333H10C10.3978 9.33333 10.7794 9.12262 11.0607 8.74755C11.342 8.37247 11.5 7.86377 11.5 7.33333V4.66667C11.5 4.66667 11.5 4.66667 11.5 4.62667ZM8.5 2.27333L9.795 4H9C8.86739 4 8.74021 3.92976 8.64645 3.80474C8.55268 3.67971 8.5 3.51014 8.5 3.33333V2.27333ZM8.5 10C8.5 10.1768 8.44732 10.3464 8.35355 10.4714C8.25979 10.5964 8.13261 10.6667 8 10.6667H2C1.86739 10.6667 1.74021 10.5964 1.64645 10.4714C1.55268 10.3464 1.5 10.1768 1.5 10V4.66667C1.5 4.48986 1.55268 4.32029 1.64645 4.19526C1.74021 4.07024 1.86739 4 2 4H2.5V7.33333C2.5 7.86377 2.65804 8.37247 2.93934 8.74755C3.22064 9.12262 3.60218 9.33333 4 9.33333H8.5V10ZM10.5 7.33333C10.5 7.51014 10.4473 7.67971 10.3536 7.80474C10.2598 7.92976 10.1326 8 10 8H4C3.86739 8 3.74021 7.92976 3.64645 7.80474C3.55268 7.67971 3.5 7.51014 3.5 7.33333V2C3.5 1.82319 3.55268 1.65362 3.64645 1.5286C3.74021 1.40357 3.86739 1.33333 4 1.33333H7.5V3.33333C7.5 3.86377 7.65804 4.37247 7.93934 4.74755C8.22064 5.12262 8.60218 5.33333 9 5.33333H10.5V7.33333Z" fill="#7F7F7F"/>
</svg>
