<svg width="40" height="41" viewBox="0 0 40 41" fill="none" xmlns="http://www.w3.org/2000/svg">
<path d="M38.6692 10.1342C37.8707 9.2977 36.7681 8.8034 35.5133 8.8034H29.2015V8.72736C29.2015 7.77679 28.8213 6.86424 28.1749 6.25587C27.5285 5.60949 26.654 5.22926 25.7034 5.22926H14.2966C13.308 5.22926 12.4335 5.60949 11.7871 6.25587C11.1407 6.90226 10.7605 7.77679 10.7605 8.72736V8.8034H4.48669C3.23194 8.8034 2.12928 9.2977 1.3308 10.1342C0.532319 10.9327 0 12.0734 0 13.2901V32.2254C0 33.4802 0.494296 34.5829 1.3308 35.3813C2.12928 36.1798 3.26996 36.7121 4.48669 36.7121H35.5133C36.7681 36.7121 37.8707 36.2178 38.6692 35.3813C39.4677 34.5829 40 33.4422 40 32.2254V13.2901C40 12.0353 39.5057 10.9327 38.6692 10.1342ZM38.0228 32.2254H37.9848C37.9848 32.9099 37.7186 33.5182 37.2624 33.9745C36.8061 34.4308 36.1977 34.6969 35.5133 34.6969H4.48669C3.80228 34.6969 3.19392 34.4308 2.73764 33.9745C2.28137 33.5182 2.01521 32.9099 2.01521 32.2254V13.2901C2.01521 12.6057 2.28137 11.9973 2.73764 11.541C3.19392 11.0848 3.80228 10.8186 4.48669 10.8186H11.8251C12.3954 10.8186 12.8517 10.3623 12.8517 9.79199V8.68933C12.8517 8.27108 13.0038 7.89085 13.27 7.62469C13.5361 7.35853 13.9163 7.20644 14.3346 7.20644H25.7034C26.1217 7.20644 26.5019 7.35853 26.7681 7.62469C27.0342 7.89085 27.1863 8.27108 27.1863 8.68933V9.79199C27.1863 10.3623 27.6426 10.8186 28.2129 10.8186H35.5513C36.2357 10.8186 36.8441 11.0848 37.3004 11.541C37.7566 11.9973 38.0228 12.6057 38.0228 13.2901V32.2254Z" fill="url(#paint0_linear_135_2064)"/>
<path d="M20.0001 13.4042C17.4145 13.4042 15.0571 14.4688 13.3841 16.1418C11.6731 17.8528 10.6465 20.1722 10.6465 22.7578C10.6465 25.3433 11.7111 27.7007 13.3841 29.3737C15.0952 31.0848 17.4145 32.1114 20.0001 32.1114C22.5856 32.1114 24.9431 31.0467 26.6161 29.3737C28.3271 27.6627 29.3537 25.3433 29.3537 22.7578C29.3537 20.1722 28.2891 17.8148 26.6161 16.1418C24.9431 14.4688 22.5856 13.4042 20.0001 13.4042ZM25.1712 27.9669C23.8404 29.2597 22.0153 30.0962 20.0001 30.0962C17.9849 30.0962 16.1598 29.2597 14.829 27.9669C13.4982 26.6361 12.6997 24.811 12.6997 22.7958C12.6997 20.7806 13.5362 18.9555 14.829 17.6247C16.1598 16.2939 17.9849 15.4954 20.0001 15.4954C22.0153 15.4954 23.8404 16.3319 25.1712 17.6247C26.502 18.9555 27.3005 20.7806 27.3005 22.7958C27.3385 24.811 26.502 26.6361 25.1712 27.9669Z" fill="url(#paint1_linear_135_2064)"/>
<path d="M33.5362 17.0924C34.5652 17.0924 35.3993 16.2582 35.3993 15.2293C35.3993 14.2003 34.5652 13.3661 33.5362 13.3661C32.5072 13.3661 31.6731 14.2003 31.6731 15.2293C31.6731 16.2582 32.5072 17.0924 33.5362 17.0924Z" fill="url(#paint2_linear_135_2064)"/>
<defs>
<linearGradient id="paint0_linear_135_2064" x1="1.42857" y1="16.0515" x2="37.5927" y2="23.5916" gradientUnits="userSpaceOnUse">
<stop stop-color="#B4CD93"/>
<stop offset="1" stop-color="#427A5B"/>
</linearGradient>
<linearGradient id="paint1_linear_135_2064" x1="11.3146" y1="19.8348" x2="28.5003" y2="22.655" gradientUnits="userSpaceOnUse">
<stop stop-color="#B4CD93"/>
<stop offset="1" stop-color="#427A5B"/>
</linearGradient>
<linearGradient id="paint2_linear_135_2064" x1="31.8062" y1="14.647" x2="35.2293" y2="15.2088" gradientUnits="userSpaceOnUse">
<stop stop-color="#B4CD93"/>
<stop offset="1" stop-color="#427A5B"/>
</linearGradient>
</defs>
</svg>
