<svg width="22" height="22" viewBox="0 0 22 22" fill="none" xmlns="http://www.w3.org/2000/svg">
<mask id="mask0_131_2589" style="mask-type:alpha" maskUnits="userSpaceOnUse" x="0" y="0" width="22" height="22">
<ellipse cx="10.9989" cy="10.9998" rx="10.75" ry="10.75" fill="url(#paint0_linear_131_2589)"/>
</mask>
<g mask="url(#mask0_131_2589)">
<rect x="-2.41025" y="-2.24942" width="26.8661" height="26.7966" rx="5.6744" fill="url(#paint1_radial_131_2589)"/>
<rect x="-2.41025" y="-2.24942" width="26.8661" height="26.7966" rx="5.6744" fill="url(#paint2_radial_131_2589)"/>
<rect x="-2.41025" y="-2.24942" width="26.8661" height="26.7966" rx="5.6744" fill="url(#paint3_radial_131_2589)"/>
<path d="M15.2216 7.81462C15.2216 8.31297 14.8166 8.71697 14.3169 8.71697C13.8173 8.71697 13.4123 8.31297 13.4123 7.81462C13.4123 7.31627 13.8173 6.91228 14.3169 6.91228C14.8166 6.91228 15.2216 7.31627 15.2216 7.81462Z" fill="white"/>
<path fill-rule="evenodd" clip-rule="evenodd" d="M10.9998 14.131C12.6652 14.131 14.0154 12.7844 14.0154 11.1232C14.0154 9.46205 12.6652 8.1154 10.9998 8.1154C9.3343 8.1154 7.98417 9.46205 7.98417 11.1232C7.98417 12.7844 9.3343 14.131 10.9998 14.131ZM10.9998 12.9279C11.9991 12.9279 12.8091 12.1199 12.8091 11.1232C12.8091 10.1265 11.9991 9.31853 10.9998 9.31853C10.0005 9.31853 9.19041 10.1265 9.19041 11.1232C9.19041 12.1199 10.0005 12.9279 10.9998 12.9279Z" fill="white"/>
<path fill-rule="evenodd" clip-rule="evenodd" d="M4.96857 10.8826C4.96857 8.86115 4.96857 7.85043 5.36298 7.07834C5.70992 6.3992 6.26352 5.84703 6.94443 5.50099C7.71851 5.10759 8.73185 5.10759 10.7585 5.10759H11.241C13.2677 5.10759 14.281 5.10759 15.0551 5.50099C15.736 5.84703 16.2896 6.3992 16.6366 7.07834C17.031 7.85043 17.031 8.86115 17.031 10.8826V11.3638C17.031 13.3853 17.031 14.396 16.6366 15.1681C16.2896 15.8472 15.736 16.3994 15.0551 16.7454C14.281 17.1388 13.2677 17.1388 11.241 17.1388H10.7585C8.73185 17.1388 7.71851 17.1388 6.94443 16.7454C6.26352 16.3994 5.70992 15.8472 5.36298 15.1681C4.96857 14.396 4.96857 13.3853 4.96857 11.3638V10.8826ZM10.7585 6.31072H11.241C12.2743 6.31072 12.9767 6.31165 13.5196 6.3559C14.0484 6.39899 14.3188 6.47711 14.5075 6.57298C14.9614 6.80368 15.3305 7.17179 15.5618 7.62455C15.6579 7.81272 15.7362 8.08246 15.7794 8.60993C15.8238 9.15145 15.8247 9.85202 15.8247 10.8826V11.3638C15.8247 12.3944 15.8238 13.095 15.7794 13.6365C15.7362 14.164 15.6579 14.4337 15.5618 14.6219C15.3305 15.0746 14.9614 15.4428 14.5075 15.6734C14.3188 15.7693 14.0484 15.8474 13.5196 15.8905C12.9767 15.9348 12.2743 15.9357 11.241 15.9357H10.7585C9.72529 15.9357 9.0229 15.9348 8.47998 15.8905C7.95115 15.8474 7.6807 15.7693 7.49205 15.6734C7.03811 15.4428 6.66905 15.0746 6.43775 14.6219C6.34163 14.4337 6.26331 14.164 6.2201 13.6365C6.17575 13.095 6.17481 12.3944 6.17481 11.3638V10.8826C6.17481 9.85202 6.17575 9.15145 6.2201 8.60993C6.26331 8.08246 6.34163 7.81272 6.43775 7.62455C6.66905 7.17179 7.03811 6.80368 7.49205 6.57298C7.6807 6.47711 7.95115 6.39899 8.47998 6.3559C9.0229 6.31165 9.72529 6.31072 10.7585 6.31072Z" fill="white"/>
</g>
<defs>
<linearGradient id="paint0_linear_131_2589" x1="10.9989" y1="0.249842" x2="10.9989" y2="21.6861" gradientUnits="userSpaceOnUse">
<stop stop-color="#18ACFE"/>
<stop offset="1" stop-color="#0163E0"/>
</linearGradient>
<radialGradient id="paint1_radial_131_2589" cx="0" cy="0" r="1" gradientUnits="userSpaceOnUse" gradientTransform="translate(7.18477 17.848) rotate(-55.3065) scale(24.4433 24.4656)">
<stop stop-color="#B13589"/>
<stop offset="0.79309" stop-color="#C62F94"/>
<stop offset="1" stop-color="#8A3AC8"/>
</radialGradient>
<radialGradient id="paint2_radial_131_2589" cx="0" cy="0" r="1" gradientUnits="userSpaceOnUse" gradientTransform="translate(6.22527 25.5042) rotate(-65.0797) scale(21.6331 21.6693)">
<stop stop-color="#E0E8B7"/>
<stop offset="0.444662" stop-color="#FB8A2E"/>
<stop offset="0.71474" stop-color="#E2425C"/>
<stop offset="1" stop-color="#E2425C" stop-opacity="0"/>
</radialGradient>
<radialGradient id="paint3_radial_131_2589" cx="0" cy="0" r="1" gradientUnits="userSpaceOnUse" gradientTransform="translate(-3.8495 -1.2924) rotate(-8.10937) scale(37.314 7.96126)">
<stop offset="0.156701" stop-color="#406ADC"/>
<stop offset="0.467799" stop-color="#6A45BE"/>
<stop offset="1" stop-color="#6A45BE" stop-opacity="0"/>
</radialGradient>
</defs>
</svg>
