<svg width="24" height="24" viewBox="0 0 24 24" fill="none" xmlns="http://www.w3.org/2000/svg">
<path d="M23.5 12C23.5 18.3513 18.3513 23.5 12 23.5C5.64873 23.5 0.5 18.3513 0.5 12C0.5 5.64872 5.64873 0.5 12 0.5C18.3513 0.5 23.5 5.64872 23.5 12Z" fill="#F3F3F9" stroke="#E9EBEC"/>
<mask id="mask0_131_2610" style="mask-type:alpha" maskUnits="userSpaceOnUse" x="1" y="1" width="22" height="22">
<ellipse cx="11.9995" cy="11.9999" rx="10.75" ry="10.75" fill="url(#paint0_linear_131_2610)"/>
</mask>
<g mask="url(#mask0_131_2610)">
<g clip-path="url(#clip0_131_2610)">
<path d="M12.0001 22.8C17.9648 22.8 22.8001 17.9647 22.8001 12C22.8001 6.03533 17.9648 1.20001 12.0001 1.20001C6.03546 1.20001 1.20013 6.03533 1.20013 12C1.20013 17.9647 6.03546 22.8 12.0001 22.8Z" fill="#007AB9"/>
<path d="M17.1001 12.9693V16.8001H14.8491V13.226C14.8491 12.3286 14.5241 11.7157 13.7091 11.7157C13.0872 11.7157 12.7177 12.1283 12.5545 12.5278C12.4953 12.6706 12.48 12.8689 12.48 13.0691V16.7999H10.2288C10.2288 16.7999 10.259 10.7466 10.2288 10.12H12.4801V11.0666C12.4756 11.0741 12.4692 11.0814 12.4652 11.0885H12.4801V11.0666C12.7793 10.6124 13.3128 9.96315 14.5089 9.96315C15.9898 9.96315 17.1001 10.9179 17.1001 12.9693ZM7.87393 6.90006C7.10391 6.90006 6.60013 7.39879 6.60013 8.05404C6.60013 8.69538 7.0893 9.20852 7.84439 9.20852H7.85899C8.64413 9.20852 9.1323 8.69538 9.1323 8.05404C9.11735 7.39879 8.64413 6.90006 7.87393 6.90006ZM6.73392 16.8001H8.98423V10.12H6.73392V16.8001Z" fill="#F1F2F2"/>
</g>
</g>
<defs>
<linearGradient id="paint0_linear_131_2610" x1="11.9995" y1="1.24993" x2="11.9995" y2="22.6862" gradientUnits="userSpaceOnUse">
<stop stop-color="#18ACFE"/>
<stop offset="1" stop-color="#0163E0"/>
</linearGradient>
<clipPath id="clip0_131_2610">
<rect width="21.6" height="21.6" fill="white" transform="translate(1.20013 1.20006)"/>
</clipPath>
</defs>
</svg>
