<svg width="24" height="24" viewBox="0 0 24 24" fill="none" xmlns="http://www.w3.org/2000/svg">
<circle cx="12" cy="12" r="11.5" fill="#F3F3F9" stroke="#E9EBEC"/>
<mask id="mask0_131_2625" style="mask-type:alpha" maskUnits="userSpaceOnUse" x="1" y="1" width="22" height="22">
<ellipse cx="11.999" cy="11.9995" rx="10.75" ry="10.75" fill="url(#paint0_linear_131_2625)"/>
</mask>
<g mask="url(#mask0_131_2625)">
<g clip-path="url(#clip0_131_2625)">
<path d="M12.0004 22.8C17.9651 22.8 22.8004 17.9647 22.8004 12C22.8004 6.03534 17.9651 1.20001 12.0004 1.20001C6.03576 1.20001 1.20044 6.03534 1.20044 12C1.20044 17.9647 6.03576 22.8 12.0004 22.8Z" fill="#007AB9"/>
<path d="M17.1004 12.9693V16.8001H14.8495V13.2261C14.8495 12.3287 14.5245 11.7158 13.7094 11.7158C13.0875 11.7158 12.718 12.1284 12.5548 12.5279C12.4956 12.6707 12.4803 12.869 12.4803 13.0692V16.8H10.2291C10.2291 16.8 10.2594 10.7467 10.2291 10.1201H12.4805V11.0667C12.4759 11.0741 12.4695 11.0814 12.4655 11.0885H12.4805V11.0667C12.7796 10.6125 13.3131 9.96322 14.5092 9.96322C15.9901 9.96322 17.1004 10.9179 17.1004 12.9693ZM7.87424 6.90014C7.10421 6.90014 6.60043 7.39886 6.60043 8.05411C6.60043 8.69545 7.08961 9.20859 7.84469 9.20859H7.8593C8.64443 9.20859 9.1326 8.69545 9.1326 8.05411C9.11766 7.39886 8.64443 6.90014 7.87424 6.90014ZM6.73423 16.8001H8.98454V10.1201H6.73423V16.8001Z" fill="#F1F2F2"/>
<mask id="mask1_131_2625" style="mask-type:alpha" maskUnits="userSpaceOnUse" x="0" y="0" width="24" height="24">
<ellipse cx="12.0001" cy="12.2143" rx="11.1429" ry="11.3571" fill="url(#paint1_linear_131_2625)"/>
</mask>
<g mask="url(#mask1_131_2625)">
<g clip-path="url(#clip1_131_2625)">
<path d="M24.1287 12.151C24.1287 18.7673 18.8659 24.1314 12.3737 24.1314H12.3517C5.87005 24.119 0.619354 18.7585 0.619354 12.151C0.619354 5.54346 5.87005 0.182345 12.3517 0.170536H12.3737C18.8659 0.170536 24.1287 5.53283 24.1287 12.151Z" fill="black"/>
<path d="M12.3517 0.170536V24.1314C5.87005 24.119 0.619354 18.7585 0.619354 12.151C0.619354 5.54346 5.87005 0.182345 12.3517 0.170536Z" fill="#0C0C0C"/>
<path d="M17.8251 9.36035L17.8127 11.4736C17.4086 11.4686 17.0067 11.4136 16.6156 11.3099C16.0123 11.1493 15.4433 10.8765 14.9372 10.5052C14.9372 10.7212 14.9402 11.0435 14.9402 11.4355C14.9402 11.9571 14.9402 12.2534 14.9372 12.5681C14.9283 14.5121 14.9757 14.8883 14.8081 15.6569C14.7732 15.8423 14.7255 16.0249 14.6654 16.2034C14.3432 17.1184 13.6409 17.8515 12.9252 18.2414C12.7255 18.3496 12.5158 18.4377 12.2993 18.5042C10.9466 18.9221 9.3211 18.5551 8.48217 17.5384L8.47668 17.5323L8.4702 17.5236C7.75746 16.6472 7.60184 15.2807 7.58688 14.931C7.58688 14.8862 7.58389 14.8425 7.58389 14.8425C7.57291 14.3647 7.64034 13.8885 7.7834 13.4333C7.92804 12.9626 8.40436 11.9799 9.47422 11.3831C10.1415 11.0168 10.903 10.8682 11.6558 10.9576L11.6314 13.0963C11.589 13.0851 10.564 12.8375 9.8912 13.5492C9.2817 14.1938 9.3211 15.2324 9.75354 15.8206C9.77648 15.8521 9.80092 15.8826 9.82636 15.9111C10.0683 16.1861 10.375 16.2893 10.582 16.3615C10.8565 16.4537 11.1445 16.4967 11.4334 16.4886C11.7428 16.4837 12.0439 16.3851 12.2983 16.2054C13.0015 15.7184 13.0963 14.8512 13.0998 14.8018C13.0911 12.0099 13.083 9.218 13.0753 6.42608V6.42354L14.3936 6.39965H14.415L14.6061 6.39609C14.7469 6.91276 14.9857 7.39633 15.3088 7.8195C15.4107 7.95186 15.5206 8.07751 15.638 8.19569C16.0816 8.63577 16.6145 8.97137 17.1992 9.17886H17.2032C17.406 9.2544 17.6138 9.31505 17.8251 9.36035Z" fill="#FD2854"/>
<path d="M17.2291 10.3166H17.2251C16.5151 10.4325 15.7884 10.3762 15.1038 10.1524C14.6258 9.99395 14.177 9.7553 13.7761 9.44626C14.0165 10.9274 14.0165 12.4387 13.7761 13.9198C13.4913 15.6605 13.3127 16.7514 12.3596 17.4494C12.3396 17.4641 12.3192 17.4789 12.2987 17.4926C10.9825 18.401 9.14351 17.9501 8.46967 17.5226L8.45969 17.5165L8.44074 17.5043C8.21863 17.3543 8.01029 17.1842 7.81828 16.9959C7.47406 16.6556 7.19939 16.2492 7.01012 15.8001C6.82084 15.351 6.72071 14.8681 6.7155 14.3794C6.70269 13.8732 6.78514 13.3691 6.9584 12.8945C7.07062 12.5895 7.48759 11.5046 8.64923 10.8443C9.39306 10.4286 10.2526 10.2803 11.0892 10.4233C11.0859 10.5928 11.0827 10.7622 11.0797 10.9317V10.9353L11.0603 12.0079C10.6962 11.9204 10.3199 11.8991 9.94852 11.9449C9.64926 11.9825 9.35598 12.0176 9.04425 12.2173C8.64501 12.4793 8.36244 12.8903 8.25719 13.3622C8.19059 13.5907 8.17693 13.8319 8.21729 14.0668C8.22926 14.1339 8.31704 14.6 8.68613 14.9345C8.81033 15.0469 8.8632 15.0515 9.04425 15.2238C9.20386 15.3763 9.24376 15.4495 9.3899 15.5761C9.3899 15.5761 9.42581 15.6071 9.48466 15.6508C9.48844 15.6541 9.49244 15.6572 9.49663 15.66C9.57712 15.72 9.66161 15.7741 9.74951 15.8221C10.1151 16.0173 10.7695 16.0382 11.2493 15.8008C11.9132 15.4719 12.2753 14.7154 12.2738 14.266C12.2658 11.4731 12.2577 8.68033 12.2493 5.88773H12.2952L14.3312 5.87553C14.3297 6.0374 14.3518 6.19859 14.3965 6.3539C14.4015 6.37067 14.4065 6.38643 14.412 6.40473C14.4175 6.42304 14.421 6.43168 14.4255 6.44439C14.4571 6.52887 14.4935 6.61137 14.5347 6.69145L14.5631 6.74991V6.75449C14.5627 6.7558 14.5627 6.75724 14.5631 6.75855L14.5676 6.76821L14.5721 6.77736C14.5748 6.78328 14.5778 6.78904 14.5811 6.79465C14.5841 6.80126 14.5876 6.80787 14.5911 6.81447C14.61 6.85158 14.636 6.90039 14.6654 6.95529C14.6838 6.98935 14.7033 7.02341 14.7232 7.05696L14.7447 7.09306C14.7552 7.11136 14.7661 7.12966 14.7771 7.14745L14.817 7.21201C14.9721 7.46162 15.2445 7.88203 15.6305 8.19976C16.1732 8.6461 16.7966 8.77217 17.1877 8.80979C17.1902 8.93485 17.1931 9.05991 17.1956 9.18496C17.2103 9.56251 17.2214 9.93971 17.2291 10.3166Z" fill="#24F6FA"/>
<path d="M17.2356 10.9139C16.2079 10.9523 15.1988 10.6267 14.3801 9.99226V14.4658C14.3702 14.6372 14.223 16.5267 12.5481 17.5668C12.4654 17.6177 12.3821 17.665 12.2988 17.7087C10.7231 18.5282 9.18345 17.8861 9.03132 17.8195C8.88006 17.7691 8.7351 17.7009 8.59939 17.6162C8.55699 17.5892 8.5156 17.5612 8.47619 17.5323L8.44078 17.5053C7.41331 16.7103 7.37092 15.0906 7.36444 14.8517C7.35346 14.3739 7.42089 13.8976 7.56394 13.4425C7.73352 12.8909 8.23978 11.9611 9.25477 11.3923C9.81483 11.0816 10.4442 10.924 11.0818 10.9348V10.9383L11.0568 12.5503C10.9496 12.5208 10.2922 12.3521 9.6498 12.7644C9.25056 13.0263 8.96799 13.4373 8.86274 13.9092C8.79977 14.1382 8.78615 14.3784 8.82284 14.6133C8.87979 14.9033 9.01406 15.1717 9.21088 15.389C9.29362 15.4861 9.38606 15.5742 9.4867 15.6518C9.49048 15.6552 9.49448 15.6582 9.49867 15.661C9.5777 15.7231 9.66238 15.7774 9.75155 15.8232L9.75454 15.8257C9.93278 16.1 10.1899 16.3115 10.4906 16.431C10.7913 16.5506 11.121 16.5725 11.4344 16.4937C11.5804 16.4626 11.7222 16.4138 11.8569 16.3483C12.0199 16.2693 12.1693 16.1639 12.2993 16.0362C12.804 15.5415 12.8778 14.8573 12.8813 14.8161L12.8594 6.43373L13.0788 6.42915L14.3971 6.40272H14.416C14.4547 6.49965 14.4965 6.59527 14.5412 6.68943L14.5697 6.7479V6.75247C14.5692 6.75379 14.5692 6.75522 14.5697 6.75654L14.5741 6.7662L14.5786 6.77535C14.5813 6.78126 14.5843 6.78703 14.5876 6.79263C14.5906 6.79924 14.5941 6.80585 14.5976 6.81246C14.6205 6.85821 14.6475 6.90549 14.6719 6.95327C14.6904 6.98733 14.7098 7.02139 14.7298 7.05495L14.7512 7.09104L14.7836 7.14543L14.8235 7.21C15.0517 7.57369 15.3251 7.9057 15.637 8.19774C16.0922 8.62249 16.6218 8.95604 17.1982 9.18091H17.2022C17.2086 9.55761 17.2151 9.93532 17.2211 10.312L17.2356 10.9139Z" fill="white"/>
<path opacity="0.17" d="M17.8252 9.36035L17.8127 11.4736C17.4086 11.4686 17.0067 11.4136 16.6156 11.3099C16.0123 11.1493 15.4433 10.8765 14.9373 10.5052C14.9373 10.7212 14.9403 11.0435 14.9403 11.4355C14.9403 11.9571 14.9403 12.2534 14.9373 12.5681C14.9283 14.5121 14.9757 14.8883 14.8081 15.6569C14.7732 15.8423 14.7256 16.0249 14.6654 16.2034C14.3432 17.1185 13.641 17.8515 12.9252 18.2414C12.7255 18.3496 12.5159 18.4377 12.2993 18.5042V5.88773L14.3353 5.87553C14.3338 6.0374 14.3558 6.19859 14.4006 6.3539C14.4056 6.37067 14.4106 6.38643 14.4161 6.40473L14.6071 6.40118C14.748 6.91785 14.9867 7.40141 15.3099 7.82459C15.4117 7.95695 15.5216 8.08259 15.639 8.20077C16.1817 8.64712 16.8052 8.77319 17.1962 8.81081C17.1987 8.93587 17.2017 9.06092 17.2042 9.18598C17.4068 9.25906 17.6144 9.31733 17.8252 9.36035Z" fill="black"/>
</g>
</g>
</g>
</g>
<defs>
<linearGradient id="paint0_linear_131_2625" x1="11.999" y1="1.24951" x2="11.999" y2="22.6857" gradientUnits="userSpaceOnUse">
<stop stop-color="#18ACFE"/>
<stop offset="1" stop-color="#0163E0"/>
</linearGradient>
<linearGradient id="paint1_linear_131_2625" x1="12.0001" y1="0.857143" x2="12.0001" y2="23.5041" gradientUnits="userSpaceOnUse">
<stop stop-color="#18ACFE"/>
<stop offset="1" stop-color="#0163E0"/>
</linearGradient>
<clipPath id="clip0_131_2625">
<rect width="21.6" height="21.6" fill="white" transform="translate(1.20044 1.20013)"/>
</clipPath>
<clipPath id="clip1_131_2625">
<rect width="23.5088" height="23.9609" fill="white" transform="translate(0.619354 0.170536)"/>
</clipPath>
</defs>
</svg>
